<svg width="337" height="886" viewBox="0 0 337 886" fill="none" xmlns="http://www.w3.org/2000/svg">
<g clip-path="url(#clip0_2041_1614)">
<g opacity="0.1">
<path d="M-198.461 993.62V991.345L-198.276 346.874L-197.562 346.504L337 66.7812V320.666L265.591 357.955V185.472L-126.92 391.542V870.353L26.7148 782.71L26.662 865.196L26.0008 865.566L-198.461 993.646V993.62ZM-195.631 348.461L-195.817 989.044L24.0172 863.609L24.0701 787.232L-129.565 874.875V389.929L-128.851 389.559L268.236 181.082V353.565L334.355 319.053V71.1449L-195.631 348.461Z" fill="#ED4D1A"/>
<path d="M-213.613 299.177L-214.273 298.701L-738 -78.5411L-502.364 -186L-435.481 -137.873L-596.28 -64.534L-208.143 215.213L188.213 17.4213L48.3959 -83.3512L120.326 -119.453L326.128 28.8913L324.172 29.8692L-213.613 299.177ZM-732.768 -78.039L-213.375 296.085L321.028 28.4684L120.062 -116.387L53.4432 -82.9547L193.287 17.8177L-208.407 218.279L-209.068 217.803L-601.512 -65.0361L-440.713 -138.376L-502.655 -182.961L-732.768 -78.039Z" fill="#ED4D1A"/>
</g>
</g>
<defs>
<clipPath id="clip0_2041_1614">
<rect width="337" height="886" fill="white"/>
</clipPath>
</defs>
</svg>
