<svg width="179" height="40" viewBox="0 0 179 40" fill="none" xmlns="http://www.w3.org/2000/svg">
<g clip-path="url(#clip0_2010_627)">
<path d="M18.5379 26.7189C18.5379 30.0611 18.5442 33.4034 18.5379 36.7393C18.5379 37.7464 18.4749 37.7905 17.6365 37.3184C15.3106 36.0218 13.0036 34.6811 10.6714 33.3971C10.1104 33.0887 9.98437 32.6732 10.0474 32.1194C10.1041 31.5592 9.91503 30.9738 10.1861 30.4325C10.6462 30.6654 11.119 30.8857 11.5728 31.1375C12.8524 31.8487 14.1193 32.5788 15.4052 33.2775C15.9977 33.5985 16.0922 33.5293 16.1111 32.8306C16.13 32.1508 16.1111 31.471 16.1111 30.7976C16.1111 26.6182 16.0859 22.4451 16.13 18.2657C16.1363 17.3845 15.9094 16.8873 15.0648 16.4592C11.1 14.4577 7.17941 12.368 3.24618 10.3161C2.5087 9.9321 2.47088 9.94469 2.46458 10.7315C2.45197 12.8715 2.45197 15.0116 2.46458 17.1516C2.46458 17.6677 2.30699 17.8314 1.83425 17.5419C1.70188 17.46 1.5506 17.4097 1.41193 17.3341C-0.277343 16.4278 0.0252136 16.881 0.0126071 15.1312C-0.0063027 12.3617 5.63101e-07 9.59851 0.0126071 6.82903C0.0126071 6.05484 0.107156 5.99819 0.819424 6.36326C4.48792 8.25783 8.14381 10.1713 11.806 12.0784C13.6592 13.0415 15.4871 14.0548 17.3718 14.9549C18.2353 15.3703 18.582 15.8613 18.5631 16.8495C18.4938 20.1351 18.5379 23.427 18.5379 26.7189Z" fill="#ED4D1A"/>
<path d="M20.8827 26.7442C20.8827 23.4019 20.9016 20.066 20.8701 16.7237C20.8638 15.9621 21.0592 15.5026 21.7841 15.1313C27.3562 12.2611 32.903 9.34687 38.4625 6.44521C38.6453 6.3508 38.8344 6.25009 39.0235 6.16197C39.3765 6.00462 39.4521 6.15568 39.4521 6.49557C39.4395 9.00068 39.4269 11.5058 39.4521 14.0109C39.4521 14.5333 39.2126 14.7851 38.7966 14.9488C38.223 15.1816 37.7502 15.6474 37.0947 15.6915C37.0695 15.1313 37.0254 14.5711 37.019 14.0109C37.0064 12.9661 37.038 11.9212 37.0001 10.8827C36.9812 10.1777 36.7858 10.0833 36.124 10.3665C35.9349 10.4484 35.7521 10.5554 35.563 10.6498C31.7684 12.6325 27.9802 14.6277 24.1667 16.5916C23.5301 16.9189 23.2716 17.3028 23.2779 18.0392C23.3095 22.9425 23.2905 27.852 23.2969 32.7552C23.2969 33.6364 23.3662 33.6742 24.1478 33.2399C25.4274 32.5349 26.6943 31.7985 27.9676 31.0809C28.3836 30.848 28.6546 30.8984 28.6294 31.4586C28.6231 31.6663 28.6042 31.8803 28.6294 32.0817C28.7933 33.0825 28.4277 33.6742 27.4759 34.1588C25.5219 35.147 23.6498 36.3115 21.7399 37.3878C20.9268 37.8473 20.8827 37.8284 20.8827 36.9283C20.8701 33.5357 20.8827 30.1431 20.8827 26.7505V26.7442Z" fill="#ED4D1A"/>
<path d="M19.8616 13.4379C19.5842 13.312 19.3447 13.2176 19.1178 13.098C13.7915 10.3096 8.46528 7.52126 3.14533 4.72661C2.96884 4.6322 2.7104 4.5189 2.67889 4.37413C2.59694 4.00277 2.98144 4.02795 3.19575 3.93354C5.64142 2.86981 8.09969 1.84384 10.5264 0.742348C11.2387 0.421341 11.8312 0.459107 12.4363 0.880822C12.8839 1.19553 13.7285 1.22701 13.7285 1.79349C13.7285 2.26556 12.9217 2.31591 12.4615 2.52362C11.1757 3.10899 9.87721 3.65659 8.58504 4.22307C8.44007 4.28601 8.19424 4.38043 8.19424 4.44337C8.20685 4.65108 8.38334 4.78326 8.57243 4.88397C12.1401 6.74078 15.7203 8.59758 19.2754 10.4733C19.8364 10.7691 20.2587 10.5614 20.7377 10.3096C23.1897 9.013 25.648 7.73527 28.0999 6.45124C29.1211 5.91623 30.1485 5.40639 31.157 4.8462C31.4974 4.65738 31.5604 4.43708 31.094 4.24195C29.4047 3.54329 27.728 2.81945 26.0451 2.09561C25.9127 2.03897 25.7488 1.94455 25.7047 1.83125C25.6417 1.66131 25.8119 1.57319 25.9568 1.51025C26.0955 1.44101 26.2342 1.35919 26.3728 1.28995C28.5475 0.226219 27.8226 0.25769 29.9846 1.16406C32.2034 2.09561 34.4095 3.04605 36.6219 3.98389C36.811 4.06572 37.0632 4.12236 37.0001 4.38672C36.9749 4.50002 36.7921 4.59443 36.6661 4.66367C34.1259 6.01064 31.5793 7.35132 29.0328 8.6857C26.3035 10.1208 23.5679 11.5433 20.8323 12.9658C20.5108 13.1294 20.183 13.2805 19.8553 13.4316L19.8616 13.4379Z" fill="#ED4D1A"/>
<path d="M108.101 34.209C108.101 35.2538 108.101 36.2987 108.101 37.3435C108.101 37.6016 108.107 37.8659 108.101 38.124C108.076 38.6464 107.906 39.0744 107.294 39.0555C106.765 39.0367 106.601 38.6212 106.588 38.1806C106.563 37.4001 106.645 36.6071 106.569 35.8329C106.5 35.1594 106.922 34.3978 106.273 33.8061C105.611 34.146 105.485 34.8699 105.151 35.43C104.533 36.456 103.991 37.526 103.392 38.5646C103.178 38.9297 102.888 39.257 102.378 39.0744C101.943 38.9234 101.886 38.5205 101.886 38.1743C101.867 36.2987 101.886 34.4167 101.886 32.5347C101.886 31.8046 101.848 31.0744 101.873 30.3443C101.905 29.6204 102.258 29.1673 102.693 29.2428C103.266 29.3435 103.405 29.7904 103.411 30.2939C103.411 31.0744 103.411 31.8612 103.411 32.6417C103.411 33.1641 103.405 33.6865 103.418 34.209C103.418 34.3915 103.386 34.6558 103.657 34.6621C103.764 34.6621 103.909 34.4922 103.979 34.3726C104.729 33.0634 105.466 31.7416 106.21 30.4261C106.386 30.1114 106.563 29.7904 106.777 29.4946C106.935 29.2806 107.181 29.1106 107.445 29.1673C107.767 29.2365 107.987 29.482 108.032 29.8282C108.069 30.1366 108.088 30.4513 108.095 30.7597C108.101 31.9053 108.095 33.0571 108.095 34.2027L108.101 34.209Z" fill="#FEFEFE"/>
<path d="M65.7997 19.468C65.7997 20.6136 65.7997 21.7654 65.7997 22.911C65.7997 23.2194 65.7871 23.5404 65.7241 23.8363C65.6611 24.1195 65.3837 24.2202 65.1253 24.2643C64.8353 24.3083 64.621 24.1384 64.4887 23.9055C64.2743 23.5215 64.3311 23.0935 64.3311 22.6781C64.3311 21.4256 64.3311 20.173 64.3122 18.9204C64.3122 18.7757 64.2113 18.6372 64.1546 18.4924C64.0411 18.5868 63.9025 18.6624 63.8268 18.782C63.5117 19.2603 63.2469 19.7765 62.9002 20.2296C62.4779 20.7772 62.0871 20.7521 61.627 20.2108C61.5576 20.1289 61.5135 20.0345 61.4442 19.959C61.0975 19.5687 61.0534 18.6687 60.4104 18.8638C59.9755 18.996 60.2277 19.8016 60.215 20.3115C60.1898 21.2997 60.215 22.2942 60.215 23.2824C60.215 23.8048 60.0323 24.258 59.4397 24.2454C58.8472 24.2328 58.696 23.7544 58.696 23.2446C58.696 20.6388 58.696 18.0267 58.696 15.4208C58.696 14.9865 58.8157 14.5459 59.3011 14.4389C59.799 14.3319 60.0386 14.7348 60.2592 15.0935C60.8076 15.981 61.3559 16.8622 61.8854 17.7623C62.1438 18.2029 62.3582 18.291 62.6481 17.8001C63.0956 17.0385 63.5558 16.2769 64.0159 15.5215C64.1798 15.2572 64.3248 14.9739 64.5265 14.7348C64.7345 14.4956 65.0055 14.3193 65.3522 14.4893C65.6043 14.6089 65.7745 14.7977 65.7871 15.0872C65.806 15.553 65.8123 16.0251 65.8123 16.4972C65.8123 17.4854 65.8123 18.4798 65.8123 19.468H65.7997Z" fill="#FEFEFE"/>
<path d="M58.6833 5.05412C58.6833 3.95892 58.6833 2.86372 58.6833 1.76223C58.6833 1.44751 58.6834 1.1328 58.7149 0.824382C58.759 0.415256 58.9859 0.12572 59.4145 0.113131C59.9251 0.100543 60.1898 0.440433 60.2024 0.906208C60.2277 2.10841 60.2024 3.31061 60.2024 4.50652C60.2024 5.0793 60.1898 5.65837 60.2024 6.23115C60.2718 8.78032 59.6477 8.40896 62.604 8.46561C63.2595 8.4782 63.3856 8.16349 63.3856 7.60959C63.373 5.72761 63.3856 3.85192 63.3856 1.96994C63.3856 1.60487 63.3604 1.23351 63.4108 0.874736C63.4738 0.42155 63.7071 0.0690717 64.2302 0.119426C64.6525 0.157191 64.8669 0.440433 64.8795 0.862148C64.8921 1.38457 64.9173 1.9007 64.9173 2.42312C64.9173 3.99039 64.9173 5.55766 64.9173 7.12493C64.9173 7.74177 64.8542 8.32084 65.5602 8.74256C66.0393 9.03209 65.9951 10.6434 65.6485 11.084C65.3459 11.4743 64.5895 11.4176 64.5139 10.9141C64.35 9.88182 63.6944 9.93217 62.9444 9.95105C61.9484 9.97623 60.9525 9.97623 59.9566 9.95105C58.8598 9.92588 58.7212 9.78111 58.7023 8.64814C58.677 7.44594 58.7023 6.24374 58.7023 5.04783L58.6833 5.05412Z" fill="#FEFEFE"/>
<path d="M172.785 19.3546C172.785 18.2091 172.785 17.0572 172.785 15.9117C172.785 15.597 172.76 15.276 172.835 14.9801C172.917 14.6528 173.207 14.4514 173.535 14.4388C173.875 14.4325 174.14 14.6717 174.222 14.9864C174.304 15.2823 174.285 15.6033 174.291 15.918C174.298 17.1202 174.291 18.3161 174.304 19.5183C174.304 19.6694 174.342 19.9337 174.405 19.9463C174.626 19.9904 174.77 19.8141 174.871 19.6316C175.533 18.4483 176.189 17.2649 176.851 16.0816C177.027 15.7606 177.191 15.4396 177.386 15.1249C177.626 14.7284 177.859 14.2311 178.445 14.4325C178.887 14.5836 179 15.0116 179 15.4585C179 18.0706 179 20.6764 179 23.2886C179 23.8173 178.798 24.2768 178.231 24.2705C177.67 24.2642 177.481 23.8236 177.487 23.276C177.506 21.866 177.494 20.4561 177.487 19.0462C177.487 18.8637 177.563 18.593 177.355 18.5364C177.267 18.5112 177.059 18.7882 176.964 18.9644C176.321 20.0974 175.697 21.2429 175.06 22.3822C174.834 22.7913 174.607 23.2004 174.367 23.6033C174.128 24.0061 173.907 24.5096 173.308 24.3019C172.76 24.1131 172.779 23.597 172.779 23.1123C172.785 21.8598 172.779 20.6072 172.779 19.3546H172.785Z" fill="#FEFEFE"/>
<path d="M142.447 19.3482C142.447 18.0453 142.422 16.7424 142.454 15.4458C142.479 14.6275 142.674 14.4261 143.487 14.3946C144.534 14.3506 145.58 14.3821 146.62 14.3884C146.771 14.3884 146.935 14.4198 147.08 14.4702C147.395 14.5772 147.635 14.7786 147.635 15.1374C147.635 15.5024 147.389 15.729 147.074 15.792C146.671 15.8738 146.248 15.8738 145.832 15.8864C145.416 15.899 144.994 15.9053 144.578 15.8927C144.105 15.8801 143.935 16.1256 143.954 16.5599C143.954 16.6102 143.954 16.6669 143.954 16.7172C143.885 18.1146 143.891 18.1838 145.24 18.1146C147.95 17.9761 148.807 18.9517 148.656 21.633C148.549 23.5276 147.881 24.2703 145.99 24.327C145.208 24.3459 144.42 24.3585 143.639 24.327C142.662 24.2829 142.466 24.0815 142.447 23.0933C142.422 21.847 142.447 20.5945 142.441 19.3482H142.447ZM143.903 21.2239C143.929 22.9611 143.658 22.8227 145.454 22.8289C145.612 22.8289 145.769 22.8289 145.92 22.8289C147.03 22.7912 147.15 22.6716 147.194 21.5638C147.206 21.2554 147.219 20.9407 147.194 20.6323C147.124 19.8329 146.973 19.707 146.116 19.6566C145.908 19.6441 145.7 19.6566 145.492 19.6566C143.67 19.6629 143.922 19.5245 143.903 21.2302V21.2239Z" fill="#FEFEFE"/>
<path d="M156.188 19.3671C156.188 20.1979 156.207 21.035 156.188 21.8659C156.144 23.4394 155.356 24.2262 153.762 24.3332C150.742 24.5346 149.961 23.8045 149.961 20.7392C149.961 19.4363 149.936 18.1334 149.967 16.8368C150.011 15.2254 150.768 14.4638 152.381 14.3883C152.955 14.3631 153.535 14.3505 154.102 14.4135C155.356 14.552 156.1 15.3136 156.176 16.5598C156.233 17.4914 156.188 18.4355 156.188 19.3734V19.3671ZM154.644 19.4111C154.644 18.8887 154.644 18.3663 154.644 17.8439C154.644 16.4927 153.987 15.8423 152.671 15.8926C151.549 15.9367 151.448 16.0185 151.43 17.1892C151.411 18.3915 151.442 19.5937 151.423 20.7896C151.373 23.1121 151.581 22.7911 153.667 22.8289C154.329 22.8415 154.644 22.5582 154.65 21.9099C154.65 21.0728 154.65 20.242 154.65 19.4048L154.644 19.4111Z" fill="#FEFEFE"/>
<path d="M117.858 19.3985C117.858 20.179 117.865 20.9595 117.858 21.74C117.858 22.0484 117.846 22.3694 117.764 22.6652C117.405 24.0122 116.257 24.5095 113.994 24.3269C112.608 24.2136 111.719 23.5213 111.662 22.2624C111.58 20.3427 111.587 18.4103 111.656 16.4843C111.694 15.301 112.45 14.5645 113.623 14.4135C114.24 14.3316 114.877 14.3442 115.501 14.3757C117.033 14.4575 117.789 15.2065 117.852 16.7298C117.89 17.611 117.858 18.4984 117.858 19.3859V19.3985ZM116.39 19.3859C116.39 18.9139 116.39 18.4481 116.39 17.976C116.39 15.8171 116.333 15.7604 114.196 15.8989C113.326 15.9556 113.2 16.0437 113.175 16.906C113.144 18.2089 113.175 19.5181 113.162 20.821C113.15 23.0681 113.106 22.8415 115.394 22.8163C116.182 22.81 116.346 22.596 116.377 21.7337C116.409 20.9532 116.383 20.1664 116.383 19.3859H116.39Z" fill="#FEFEFE"/>
<path d="M64.8542 33.5232C64.8542 34.4107 64.8416 35.2982 64.8542 36.1857C64.8668 36.834 64.6588 37.5327 65.5476 37.8978C65.8943 38.0425 65.9006 39.2762 65.6737 39.6539C65.4594 40.0126 64.8101 40.1574 64.621 39.7797C64.2113 38.9615 63.5306 39.1251 62.875 39.1188C62.3014 39.1063 61.7215 39.1188 61.1479 39.1188C60.6689 39.1126 60.234 39.1063 59.9944 39.6727C59.881 39.9434 59.5406 40.0945 59.1876 39.956C58.8472 39.8238 58.7338 39.5154 58.7086 39.207C58.6644 38.5838 58.5573 37.9041 59.3704 37.6523C59.8621 37.5012 59.7675 37.1047 59.8053 36.7648C60.0259 34.7443 60.2466 32.7239 60.4672 30.6971C60.6122 29.3439 60.7508 29.2117 62.106 29.1739C63.9382 29.1236 64.8542 30.0048 64.8542 31.8175C64.8542 32.3903 64.8542 32.9631 64.8542 33.5421V33.5232ZM63.436 34.1653C63.436 33.2337 63.436 32.3022 63.436 31.3706C63.436 30.9678 63.3793 30.6342 62.8624 30.6657C62.4842 30.6908 62.0115 30.502 61.9421 31.1692C61.7467 33.1267 61.5198 35.0779 61.2992 37.0292C61.2551 37.4257 61.4505 37.5956 61.8287 37.5956C62.0871 37.5956 62.3519 37.583 62.6103 37.6019C63.1965 37.6523 63.4675 37.432 63.4423 36.8089C63.4045 35.9277 63.436 35.0465 63.4297 34.1653H63.436Z" fill="#FEFEFE"/>
<path d="M119.913 19.2225C119.913 17.9699 119.888 16.7174 119.92 15.4648C119.938 14.6591 120.146 14.4325 120.941 14.3948C121.987 14.3444 123.033 14.3759 124.086 14.3822C124.603 14.3822 125.107 14.571 125.132 15.106C125.158 15.6599 124.647 15.8613 124.136 15.8802C123.506 15.8991 122.876 15.9117 122.252 15.8802C121.678 15.855 121.344 15.9998 121.42 16.6544C121.458 16.9628 121.439 17.2775 121.42 17.5923C121.407 18.0014 121.634 18.1336 122.006 18.1273C122.636 18.1273 123.267 18.0958 123.891 18.1462C125.296 18.2532 126.053 19.0588 126.116 20.4813C126.141 21.0037 126.147 21.5262 126.116 22.0486C126.027 23.383 125.284 24.1949 123.966 24.3019C122.977 24.3775 121.974 24.3649 120.978 24.3208C120.115 24.2831 119.926 24.0502 119.907 23.1375C119.882 21.8346 119.907 20.5254 119.907 19.2225H119.913ZM121.426 21.1422C121.47 23.0808 121.105 22.7913 123.204 22.8291C123.412 22.8291 123.62 22.8291 123.828 22.8165C124.319 22.7913 124.546 22.527 124.615 22.036C124.918 19.9274 124.628 19.6001 122.46 19.6505C122.353 19.6505 122.252 19.6631 122.145 19.6505C121.609 19.5938 121.376 19.8267 121.42 20.3617C121.439 20.6198 121.42 20.8842 121.42 21.1422H121.426Z" fill="#FEFEFE"/>
<path d="M110.118 19.3671C110.118 20.2546 110.143 21.1421 110.118 22.0233C110.068 23.3513 109.33 24.1696 108.019 24.3018C107.345 24.371 106.657 24.3647 105.983 24.3018C104.754 24.1696 103.953 23.3639 103.922 22.1491C103.871 20.2734 103.853 18.3978 103.922 16.5221C103.985 14.9863 104.987 14.3694 107.118 14.382C109.141 14.3946 110.023 15.0114 110.112 16.5598C110.162 17.4914 110.124 18.4355 110.124 19.3734L110.118 19.3671ZM108.599 19.4741C108.599 18.5866 108.599 17.6991 108.599 16.8116C108.599 16.4969 108.586 16.0941 108.252 16.0059C107.439 15.7982 106.594 15.8045 105.775 16.0059C105.573 16.0563 105.435 16.2829 105.435 16.4906C105.435 18.4166 105.435 20.349 105.46 22.275C105.46 22.5457 105.712 22.766 105.983 22.7786C106.664 22.81 107.345 22.8226 108.019 22.7723C108.454 22.7408 108.593 22.3757 108.599 21.9729C108.599 21.1358 108.599 20.3049 108.599 19.4678V19.4741Z" fill="#FEFEFE"/>
<path d="M73.6977 4.94713C73.6977 3.90229 73.6977 2.85744 73.6977 1.81259C73.6977 1.55453 73.6977 1.29017 73.6977 1.03211C73.6977 0.478212 73.9625 0.100557 74.5361 0.125734C75.0403 0.150911 75.2105 0.534861 75.2042 1.01322C75.1979 1.693 75.2231 2.37278 75.2042 3.04627C75.1853 3.57499 75.3744 3.82676 75.9228 3.77011C76.0236 3.75752 76.1308 3.77011 76.2379 3.77011C77.6625 3.80368 78.3852 3.10082 78.4063 1.66153C78.4063 1.34682 78.3937 1.03211 78.4504 0.729982C78.5197 0.333444 78.7971 0.056497 79.2131 0.0942626C79.6039 0.132028 79.8812 0.390093 79.9127 0.818102C79.9316 1.13281 79.9253 1.44123 79.9253 1.75595C79.9253 3.89599 79.9253 6.03604 79.9253 8.17609C79.9253 8.28309 79.9253 8.3838 79.9253 8.4908C79.9064 9.48529 79.648 9.95736 79.1311 9.92589C78.6395 9.90071 78.4252 9.46641 78.4126 8.40897C78.4063 7.62849 78.3874 6.84171 78.4126 6.06122C78.4378 5.46326 78.2298 5.26814 77.6057 5.24926C75.2105 5.16114 75.2105 5.13596 75.2105 7.59702C75.2105 8.11944 75.2105 8.64186 75.2042 9.16429C75.1979 9.586 74.9899 9.87554 74.5613 9.9133C74.0507 9.95736 73.7923 9.63636 73.7292 9.17687C73.6851 8.86846 73.704 8.55374 73.704 8.23903C73.704 7.14383 73.704 6.04863 73.704 4.95343L73.6977 4.94713Z" fill="#FEFEFE"/>
<path d="M165.253 19.3609C165.253 18.2657 165.253 17.1705 165.253 16.069C165.253 15.8109 165.253 15.5466 165.253 15.2885C165.271 14.7976 165.568 14.4577 166.015 14.4451C166.482 14.4325 166.759 14.7913 166.765 15.2822C166.772 15.962 166.765 16.6418 166.778 17.3153C166.778 17.4537 166.86 17.5859 166.904 17.7181C167.036 17.6489 167.194 17.6048 167.301 17.5041C168.051 16.774 168.789 16.0375 169.539 15.3074C169.797 15.0556 170.075 14.8164 170.365 14.5836C170.736 14.2877 171.064 14.4703 171.329 14.7472C171.587 15.0116 171.543 15.3326 171.31 15.5906C170.85 16.0879 170.365 16.5662 169.892 17.0509C169.633 17.3153 169.394 17.5985 169.11 17.8188C168.682 18.1461 168.732 18.4608 168.984 18.8825C169.778 20.2295 170.522 21.6079 171.31 22.9612C171.562 23.3955 171.745 23.7543 171.184 24.1068C170.623 24.4592 170.276 24.1634 170.024 23.7354C169.331 22.571 168.694 21.3751 168.007 20.2043C167.868 19.9714 167.824 19.5308 167.402 19.6441C167.024 19.7448 166.797 20.0407 166.791 20.4561C166.784 21.2366 166.791 22.0234 166.778 22.8039C166.778 23.1186 166.797 23.4396 166.721 23.7354C166.639 24.0627 166.343 24.2704 166.022 24.2767C165.7 24.2767 165.391 24.0564 165.322 23.7354C165.24 23.3326 165.265 22.9046 165.259 22.4891C165.253 21.4443 165.259 20.3994 165.259 19.3546L165.253 19.3609Z" fill="#FEFEFE"/>
<path d="M101.552 19.3799C101.552 20.4751 101.552 21.5703 101.552 22.6655C101.552 22.9802 101.564 23.2949 101.514 23.6033C101.451 24.0062 101.193 24.2894 100.777 24.2642C100.392 24.239 100.083 24.0188 100.071 23.5719C100.058 23.2068 100.058 22.8417 100.058 22.4767C100.058 20.601 100.071 18.7253 100.045 16.8496C100.045 16.4971 100.285 15.9495 99.5915 15.8992C99.0557 15.8614 98.9045 16.1761 98.7847 16.6356C98.2678 18.5994 97.7131 20.5506 97.1648 22.5081C97.0387 22.955 96.9189 23.4145 96.7298 23.8362C96.6038 24.1258 96.339 24.3461 95.9734 24.2516C95.5889 24.1509 95.3116 23.918 95.3683 23.4712C95.3999 23.2131 95.4692 22.9613 95.5385 22.7158C96.1941 20.3618 96.8433 18.0014 97.5178 15.6537C97.8707 14.42 97.8959 14.4011 99.1062 14.3822C101.722 14.3382 101.583 14.3885 101.552 16.7237C101.539 17.6112 101.552 18.4987 101.552 19.3799Z" fill="#FEFEFE"/>
<path d="M94.0384 19.5245C94.0384 20.5693 94.0384 21.6079 94.0384 22.6527C94.0384 22.9674 94.051 23.2821 94.0068 23.5906C93.9564 24.006 93.6665 24.2829 93.2757 24.2766C92.9038 24.2703 92.576 24.0375 92.5445 23.5969C92.5193 23.2884 92.5256 22.9737 92.5256 22.659C92.5256 20.9407 92.5697 19.2161 92.4941 17.504C92.4688 16.9816 92.9857 16.0878 92.078 15.943C91.0506 15.7794 91.2649 16.8494 91.0758 17.4033C90.6283 18.7314 90.3131 20.1035 89.9412 21.4568C89.7458 22.1555 89.5504 22.8604 89.3361 23.5528C89.2038 23.9745 88.9579 24.3522 88.4537 24.2515C87.8927 24.1382 87.7162 23.7227 87.8738 23.1751C88.6176 20.519 89.355 17.8628 90.1051 15.2129C90.2627 14.6464 90.6346 14.3758 91.2586 14.3695C94.4102 14.338 94.032 14.3695 94.0257 16.862C94.0257 17.7495 94.0257 18.6307 94.0257 19.5182L94.0384 19.5245Z" fill="#FEFEFE"/>
<path d="M82.995 14.3633C83.285 14.3759 83.5056 14.5143 83.6254 14.7598C83.7577 15.0431 83.8649 15.3326 83.9657 15.6284C84.7915 18.0895 85.6172 20.5568 86.4366 23.0242C86.6635 23.6977 86.5249 24.0816 85.9954 24.2327C85.3714 24.4089 85.1886 23.9431 84.9995 23.5025C84.5582 22.4661 83.7913 21.9583 82.6988 21.9793C81.9382 21.9919 81.4213 22.3507 81.1482 23.0557C81.0915 23.2004 81.0473 23.3515 80.9906 23.4962C80.8141 23.9494 80.5872 24.4215 79.9947 24.2327C79.3896 24.0376 79.5976 23.4774 79.5976 23.0305C79.5976 22.9298 79.6291 22.8228 79.6606 22.7283C80.4989 20.2169 81.3373 17.7055 82.1819 15.2004C82.3143 14.8102 82.4782 14.4073 82.995 14.3696V14.3633ZM82.9824 20.5065C83.9594 20.5254 83.9783 20.5065 83.7136 19.6064C83.701 19.556 83.701 19.4994 83.6758 19.4553C83.4047 18.9581 83.4552 17.9825 83.0013 18.0077C82.4971 18.0328 82.5097 18.9644 82.3206 19.5057C81.9991 20.4184 82.0684 20.4876 82.9824 20.5065Z" fill="#FEFEFE"/>
<path d="M94.0383 34.2533C94.0383 35.3989 94.0447 36.5507 94.0383 37.6963C94.0383 38.0047 94.0131 38.3194 93.9249 38.6153C93.8492 38.867 93.616 39.0559 93.3387 39.0685C93.0046 39.081 92.6957 38.9111 92.6138 38.5838C92.5256 38.2376 92.5382 37.86 92.5382 37.5012C92.5319 35.5688 92.5508 33.6428 92.5193 31.7105C92.5193 31.358 92.8029 30.8167 92.1663 30.6845C91.5296 30.5523 91.3973 31.0181 91.2649 31.4965C90.7354 33.4603 90.1871 35.4115 89.645 37.369C89.5504 37.7215 89.4622 38.0803 89.3298 38.4201C89.1722 38.8356 88.8949 39.1817 88.3969 39.0307C87.9305 38.8922 87.7603 38.5271 87.8738 38.0425C87.8864 37.9921 87.9053 37.9418 87.9179 37.8914C88.6428 35.2856 89.3739 32.6735 90.0988 30.0677C90.2753 29.4257 90.685 29.1109 91.3658 29.1613C91.4162 29.1613 91.4729 29.1613 91.5233 29.1613C93.9942 29.0543 94.0446 29.1046 94.0446 31.5909C94.0446 32.4784 94.0446 33.3659 94.0446 34.2533H94.0383Z" fill="#FEFEFE"/>
<path d="M88.7499 5.05413C88.7499 3.80786 88.7373 2.55531 88.7499 1.30904C88.7625 0.283079 88.9327 0.075369 89.8782 0.0313092C90.8174 -0.0127506 91.7629 -0.0253391 92.6957 0.0438977C94.1896 0.163489 94.8704 0.969153 94.9649 2.49236C95.1477 5.43808 94.2842 6.44516 91.4666 6.19968C91.309 6.18709 91.1514 6.21227 91.0002 6.19968C90.4833 6.14933 90.2186 6.33815 90.2564 6.89205C90.2879 7.30747 90.2564 7.72289 90.2564 8.13831C90.2564 8.39638 90.2564 8.66073 90.2564 8.9188C90.2564 9.44122 90.0736 9.88811 89.4937 9.907C88.8949 9.92588 88.7373 9.47269 88.7436 8.94398C88.7499 7.64107 88.7436 6.34445 88.7436 5.04154L88.7499 5.05413ZM90.2627 3.10291C90.2942 4.94083 89.9853 4.67018 92.0024 4.70165C92.2104 4.70165 92.4184 4.70165 92.6264 4.69535C93.1937 4.67018 93.4647 4.37435 93.4584 3.80157C93.4332 1.76223 93.7862 1.44122 91.3216 1.51046C91.2145 1.51046 91.1136 1.52305 91.0065 1.51046C90.4959 1.46011 90.2123 1.64264 90.2564 2.20283C90.2753 2.46089 90.2564 2.71896 90.2564 3.1092L90.2627 3.10291Z" fill="#FEFEFE"/>
<path d="M127.446 19.2603C127.446 18.0581 127.433 16.8622 127.446 15.66C127.465 14.5711 127.616 14.42 128.725 14.3822C129.564 14.3571 130.402 14.3445 131.24 14.3822C132.766 14.4515 133.547 15.2257 133.642 16.7111C133.825 19.5498 133.194 20.7898 130.099 20.5884C128.971 20.5191 128.965 20.5947 128.946 21.8095C128.94 22.3822 128.958 22.955 128.921 23.5278C128.895 23.9369 128.624 24.2579 128.234 24.2642C127.78 24.2705 127.446 23.9936 127.446 23.4837C127.446 22.0738 127.446 20.6702 127.446 19.2603ZM128.946 17.3783C128.984 19.3043 128.637 19.0337 130.723 19.0652C130.931 19.0652 131.139 19.0652 131.347 19.0589C131.839 19.0337 132.072 18.763 132.148 18.2784C132.469 16.2642 132.148 15.8614 130.143 15.8866C129.986 15.8866 129.828 15.8991 129.677 15.8866C129.148 15.8362 128.902 16.0565 128.946 16.5978C128.971 16.8559 128.946 17.1139 128.946 17.3783Z" fill="#FEFEFE"/>
<path d="M79.5787 38.2625C79.5345 37.8659 79.6543 37.5198 79.7741 37.1736C80.562 34.851 81.3373 32.5284 82.1189 30.2058C82.1693 30.0548 82.2008 29.9037 82.2639 29.7589C82.3962 29.4631 82.5853 29.1673 82.9194 29.1484C83.3228 29.1295 83.5812 29.4002 83.7073 29.7841C84.2242 31.3136 84.7347 32.8431 85.2642 34.3726C85.6865 35.6 86.0521 36.8589 86.5879 38.0359C86.84 38.5898 86.4429 38.6464 86.2538 38.8415C85.9702 39.1374 85.6172 39.1688 85.2957 38.829C84.9112 38.4261 84.9364 37.8596 84.6969 37.3939C84.5835 37.161 84.5519 36.8463 84.2431 36.8337C83.4047 36.8022 82.5664 36.7833 81.7344 36.8274C81.4759 36.84 81.3562 37.1673 81.2679 37.4127C81.123 37.803 81.0221 38.2184 80.8456 38.5898C80.6754 38.936 80.3918 39.1751 79.9569 39.0115C79.6039 38.873 79.5408 38.5772 79.5787 38.2625ZM83.1085 35.2916C83.6842 35.2874 83.8859 34.9916 83.7136 34.4041C83.701 34.3537 83.701 34.2971 83.6758 34.253C83.3669 33.7369 83.5056 33.0068 82.8879 32.6354C82.6925 33.1767 82.4845 33.7054 82.3143 34.253C81.9991 35.2349 82.0559 35.3042 83.1085 35.2916Z" fill="#FEFEFE"/>
<path d="M141.243 23.5152C141.243 23.874 140.991 24.0565 140.714 24.2139C140.374 24.409 140.065 24.2454 139.901 23.981C139.687 23.6348 139.529 23.232 139.434 22.8355C139.271 22.1431 138.842 21.9102 138.18 21.9794C137.972 21.9983 137.764 21.9794 137.556 21.9794C136.64 21.9794 136.016 22.4074 135.684 23.2635C135.665 23.3138 135.659 23.3642 135.64 23.4145C135.514 23.8929 135.306 24.3209 134.713 24.2517C134.272 24.2013 134.064 23.5593 134.297 22.8417C135.123 20.324 135.974 17.8189 136.812 15.3075C136.844 15.2068 136.869 15.1061 136.907 15.0117C137.039 14.6466 137.254 14.3571 137.688 14.3634C138.054 14.3697 138.218 14.6718 138.357 14.9487C138.451 15.1313 138.47 15.3453 138.539 15.5467C139.359 18.0078 140.185 20.4688 141.004 22.9299C141.067 23.125 141.155 23.3138 141.237 23.5152H141.243ZM137.556 20.5066C138.565 20.5066 138.615 20.4373 138.294 19.424C138.167 19.0274 138.029 18.6372 137.884 18.2532C137.833 18.1085 137.758 17.9763 137.695 17.8378C137.6 17.9574 137.468 18.0581 137.411 18.1966C137.222 18.6812 137.046 19.1659 136.901 19.6631C136.648 20.5003 136.661 20.5129 137.55 20.5129L137.556 20.5066Z" fill="#FEFEFE"/>
<path d="M67.1234 4.89038C67.1234 3.68818 67.1045 2.49227 67.1234 1.29006C67.1486 0.245217 67.2999 0.0752724 68.2895 0.0375069C69.3359 -0.000258687 70.3822 0.0123298 71.4285 0.0375069C71.8004 0.0438011 72.1534 0.17598 72.3236 0.55993C72.4938 0.950174 72.2417 1.42854 71.75 1.4726C71.0251 1.54183 70.2877 1.49777 69.5565 1.52295C68.6362 1.55442 68.6362 1.56072 68.6173 2.51744C68.6173 2.72515 68.6299 2.93286 68.6173 3.14057C68.5921 3.60635 68.8064 3.78888 69.2665 3.78888C69.7897 3.78888 70.3129 3.78888 70.8234 3.877C71.2016 3.93995 71.4853 4.2106 71.4159 4.66378C71.3592 5.02256 71.1134 5.21768 70.7793 5.24915C70.2561 5.29321 69.733 5.28692 69.2098 5.28692C68.8379 5.28692 68.6236 5.44427 68.6236 5.84081C68.6236 5.99817 68.6236 6.15552 68.6236 6.31288C68.5816 7.73538 69.2833 8.45712 70.7289 8.47811C71.044 8.47811 71.3655 8.46552 71.6618 8.52846C72.0274 8.61028 72.3803 8.78652 72.374 9.23342C72.374 9.76843 71.9706 9.9069 71.5294 9.96984C71.4285 9.98243 71.3214 9.96984 71.2142 9.96984C70.2751 9.96984 69.3296 9.98873 68.3904 9.96984C67.3125 9.93837 67.1612 9.78102 67.136 8.65434C67.1108 7.40179 67.136 6.14923 67.136 4.89667L67.1234 4.89038Z" fill="#FEFEFE"/>
<path d="M67.1234 34.1652C67.1234 32.8623 67.0982 31.5531 67.136 30.2502C67.1549 29.4445 67.3692 29.2116 68.1635 29.1738C69.2602 29.1235 70.3633 29.1361 71.4601 29.1738C71.8824 29.1864 72.3299 29.3501 72.3551 29.8788C72.3866 30.5082 71.9076 30.6404 71.4033 30.653C70.7226 30.6719 70.0418 30.6782 69.3611 30.653C68.8568 30.6341 68.548 30.7726 68.611 31.3454C68.6299 31.5027 68.611 31.6601 68.611 31.8174C68.6173 32.6986 68.3904 32.9693 69.7456 32.9252C70.1553 32.9126 70.5839 32.8497 70.9747 33.0637C71.2205 33.1959 71.4033 33.3595 71.4222 33.6491C71.4412 34.0141 71.2331 34.2785 70.9054 34.3288C70.3948 34.4044 69.8653 34.4232 69.3485 34.4107C68.8316 34.3981 68.5606 34.5491 68.611 35.1156C68.6803 35.8835 68.3084 36.8214 68.7812 37.3878C69.2224 37.9291 70.1553 37.52 70.8676 37.5956C70.918 37.5956 70.9747 37.5956 71.0251 37.5956C71.6176 37.5956 72.2354 37.5956 72.3614 38.3509C72.4371 38.8166 71.958 39.0747 71.0377 39.0999C70.1994 39.1188 69.3611 39.1188 68.5227 39.0999C67.2999 39.0747 67.1486 38.9362 67.1297 37.7592C67.1045 36.557 67.1297 35.3611 67.1297 34.1589L67.1234 34.1652Z" fill="#FEFEFE"/>
<path d="M95.3431 34.1275C95.3431 32.8246 95.3683 31.5154 95.3368 30.2125C95.3179 29.5453 95.6457 29.2054 96.2382 29.1802C97.3854 29.1362 98.5389 29.1551 99.6924 29.1802C100.14 29.1928 100.569 29.4131 100.562 29.9041C100.562 30.3761 100.178 30.6279 99.705 30.6405C99.0242 30.6594 98.3435 30.6846 97.6627 30.6405C97.0639 30.609 96.774 30.7979 96.837 31.4273C96.8685 31.7357 96.8496 32.0504 96.8433 32.3651C96.8433 32.768 97.0765 32.8938 97.4358 32.9064C97.959 32.919 98.4821 32.9253 98.999 32.9883C99.3331 33.0323 99.6041 33.2778 99.623 33.6114C99.6482 34.0205 99.352 34.3038 98.9612 34.3541C98.4443 34.4234 97.9212 34.4045 97.398 34.4108C97.0072 34.4108 96.8244 34.587 96.8433 34.9772C96.8433 35.0843 96.8433 35.185 96.8433 35.292C96.7803 36.7984 97.4883 37.5663 98.9675 37.5957C100.077 37.6145 100.688 37.9104 100.556 38.4076C100.342 39.2259 99.623 39.1 99.0053 39.1063C98.1166 39.1063 97.2215 39.1378 96.3327 39.0937C95.4692 39.0496 95.3935 38.93 95.3368 38.0363C95.3368 37.9859 95.3368 37.9293 95.3368 37.8789C95.3368 36.6263 95.3368 35.3738 95.3368 34.1212L95.3431 34.1275Z" fill="#FEFEFE"/>
<path d="M69.6762 14.401C70.3066 14.401 70.9369 14.3569 71.5609 14.4136C71.9895 14.4513 72.393 14.6528 72.3614 15.1941C72.3362 15.6347 71.9643 15.8235 71.605 15.855C70.9306 15.9116 70.2435 15.8801 69.5691 15.899C68.6425 15.9242 68.6425 15.9305 68.6236 16.8558C68.6236 17.0635 68.6362 17.2712 68.6236 17.4789C68.5921 17.9321 68.7686 18.1461 69.2476 18.1398C69.7708 18.1335 70.3003 18.1209 70.8108 18.2027C71.1008 18.2468 71.3907 18.4482 71.4349 18.8196C71.4916 19.2979 71.1449 19.4931 70.7982 19.5749C70.4011 19.6693 69.9662 19.663 69.5502 19.6378C68.9325 19.6001 68.548 19.7385 68.6173 20.475C68.6866 21.1925 68.4282 22.0926 68.7749 22.5961C69.172 23.1689 70.1301 22.7535 70.8423 22.8227C71.4475 22.8794 72.1786 22.6842 72.3614 23.5403C72.4749 24.069 71.9517 24.327 70.773 24.3396C69.8843 24.3459 68.9955 24.3522 68.1067 24.327C67.489 24.3145 67.136 23.9871 67.136 23.3451C67.136 20.6827 67.136 18.0265 67.136 15.364C67.136 14.7283 67.4953 14.4073 68.113 14.3884C68.6362 14.3758 69.1594 14.3884 69.6825 14.3884C69.6825 14.3884 69.6825 14.3947 69.6825 14.401H69.6762Z" fill="#FEFEFE"/>
<path d="M76.0614 34.7064C76.0614 33.6112 76.0551 32.5223 76.0614 31.4271C76.0614 30.9362 75.9228 30.6277 75.3618 30.6592C75.1033 30.6718 74.8386 30.6592 74.5802 30.6529C74.0948 30.634 73.7355 30.376 73.7418 29.9039C73.7481 29.4192 74.1705 29.2178 74.618 29.1801C74.9836 29.1486 75.3492 29.1612 75.7148 29.1612C76.654 29.1612 77.5994 29.1612 78.5386 29.1612C78.9105 29.1612 79.2635 29.1675 79.585 29.4067C79.9821 29.6962 79.9821 30.1431 79.585 30.4452C79.3139 30.6529 79.0051 30.6403 78.6962 30.6655C77.5931 30.7599 77.5805 30.7662 77.5805 31.9244C77.5742 33.8504 77.5805 35.7764 77.5805 37.7025C77.5805 38.2753 77.6625 38.9173 76.8809 39.062C76.3388 39.1628 76.074 38.7033 76.0614 37.6773C76.0488 36.6891 76.0614 35.7009 76.0614 34.7064Z" fill="#FEFEFE"/>
<path d="M83.5749 5.56417C83.5749 4.52562 83.5497 3.48078 83.5812 2.44222C83.6002 1.8065 83.4426 1.42885 82.7177 1.51067C82.5097 1.53585 82.3017 1.51067 82.0937 1.51067C81.6083 1.49808 81.2616 1.2589 81.2616 0.774245C81.2616 0.26441 81.6903 0.10076 82.1252 0.0441113C82.434 0.00634574 82.7492 0.0252285 83.0644 0.0252285C84.2116 0.0252285 85.3651 0.01264 86.5123 0.0441113C86.9598 0.0566998 87.3821 0.270705 87.3884 0.761657C87.3884 1.24631 87.0228 1.46032 86.5501 1.51067C86.0899 1.55473 85.4974 1.31555 85.2075 1.6995C84.8986 2.10863 85.0877 2.71288 85.0814 3.22901C85.0688 4.89698 85.0814 6.56496 85.0814 8.22664C85.0814 8.54136 85.0814 8.84978 85.0499 9.15819C85.0121 9.55473 84.8482 9.88203 84.407 9.91351C83.8775 9.95757 83.6317 9.61767 83.6128 9.1519C83.5749 8.1637 83.5875 7.1755 83.5749 6.18731C83.5749 5.97959 83.5749 5.77188 83.5749 5.56417Z" fill="#FEFEFE"/>
<path d="M76.8431 14.3883C77.5238 14.3883 78.1982 14.3694 78.879 14.3883C79.3833 14.4072 79.8686 14.5834 79.8686 15.1562C79.8686 15.6408 79.4211 15.8045 78.9862 15.88C78.5386 15.9555 77.9209 15.6786 77.6688 16.1129C77.4608 16.4717 77.5805 17.0256 77.5742 17.4913C77.5679 19.3104 77.5742 21.1294 77.5679 22.9485C77.5679 23.5149 77.6247 24.1633 76.8304 24.264C76.3577 24.3206 76.1119 23.8737 76.1056 22.9611C76.093 20.9343 76.1056 18.9076 76.0993 16.8808C76.0993 15.9618 76.074 15.9618 75.179 15.8926C75.0781 15.8863 74.971 15.8926 74.8638 15.8926C74.2965 15.8926 73.7103 15.7541 73.7545 15.1058C73.7986 14.4827 74.4037 14.382 74.9584 14.382C75.5824 14.382 76.2127 14.382 76.8367 14.382L76.8431 14.3883Z" fill="#FEFEFE"/>
<path d="M160.941 14.3886C161.622 14.3886 162.303 14.3698 162.983 14.3949C163.425 14.4138 163.847 14.5963 163.897 15.0873C163.954 15.6097 163.507 15.7734 163.091 15.8741C162.643 15.9811 162.032 15.6852 161.748 16.0818C161.414 16.5476 161.628 17.1896 161.622 17.7561C161.603 19.4807 161.622 21.2053 161.609 22.9299C161.609 23.4964 161.679 24.151 160.884 24.2706C160.412 24.3399 160.147 23.8741 160.147 22.974C160.134 20.8843 160.122 18.7946 160.153 16.7049C160.166 16.0818 159.945 15.8552 159.34 15.893C159.031 15.9118 158.71 15.893 158.401 15.8363C158.073 15.7734 157.815 15.5468 157.777 15.2132C157.733 14.7726 158.061 14.5208 158.426 14.4642C158.937 14.3823 159.466 14.4075 159.989 14.3949C160.305 14.3886 160.62 14.3949 160.935 14.3949L160.941 14.3886Z" fill="#FEFEFE"/>
<path d="M105.069 28.7646C104.71 28.7646 104.344 28.7898 103.985 28.7583C103.556 28.7206 103.329 28.4185 103.323 28.0282C103.323 27.6946 103.569 27.4554 103.897 27.3799C104.558 27.2351 105.239 27.254 105.901 27.3484C106.33 27.4114 106.708 27.6443 106.626 28.173C106.563 28.601 106.229 28.7521 105.838 28.7772C105.58 28.7961 105.321 28.7772 105.063 28.7772V28.7583L105.069 28.7646Z" fill="#FEFEFE"/>
</g>
<defs>
<clipPath id="clip0_2010_627">
<rect width="179" height="40" fill="white"/>
</clipPath>
</defs>
</svg>
