<svg width="36" height="36" viewBox="0 0 36 36" fill="none" xmlns="http://www.w3.org/2000/svg">
<path d="M4.9369 22.6239C5.7093 21.8546 6.45905 21.1028 7.21806 20.3603C7.2747 20.3046 7.40755 20.2892 7.49406 20.3077C8.906 20.6084 10.319 20.9112 11.7268 21.2315C11.9523 21.283 12.0831 21.2325 12.2366 21.0729C17.1017 15.9926 21.974 10.9195 26.838 5.83812C27.3725 5.28097 27.9791 4.91536 28.7659 4.90918C29.7711 4.90198 30.6712 5.48385 31.044 6.41485C31.4395 7.40043 31.2767 8.31907 30.5352 9.07087C29.5311 10.0894 28.4796 11.0616 27.4477 12.0523C23.6393 15.7063 19.8308 19.3603 16.0224 23.0142C15.6887 23.3345 15.3612 23.662 15.0183 23.973C14.8936 24.0863 14.8627 24.1965 14.8978 24.3551C15.2139 25.7815 15.527 27.2099 15.8339 28.6383C15.8535 28.7279 15.8545 28.8649 15.802 28.9184C15.0553 29.6847 14.2973 30.4406 13.5229 31.2181C13.2623 30.7609 13.0172 30.3314 12.7731 29.902C12.0203 28.5786 11.2706 27.2531 10.5116 25.9329C10.4436 25.8144 10.3313 25.7032 10.2119 25.6352C8.53525 24.6733 6.85348 23.7197 5.17274 22.764C5.1058 22.7259 5.04092 22.6867 4.93484 22.6249L4.9369 22.6239Z" fill="white"/>
<path d="M4.90909 10.6836C5.20878 10.3881 5.50126 10.0997 5.79168 9.8103C6.36223 9.24182 6.93689 8.67745 7.49611 8.09764C7.6372 7.9514 7.75666 7.93183 7.9441 7.9895C9.33236 8.41587 10.7247 8.82678 12.112 9.25624C12.3437 9.32833 12.4899 9.30979 12.6671 9.12544C13.3674 8.3963 14.0883 7.68775 14.7773 6.99774C15.1429 7.36128 15.4982 7.71453 15.8617 8.07704C15.3128 8.62184 14.7206 9.20886 14.0821 9.84326C14.5888 9.99671 15.0327 10.0915 15.4415 10.2665C15.9039 10.4653 16.2036 10.3654 16.5363 9.99156C17.1089 9.34686 17.7474 8.75984 18.3426 8.16355C18.7103 8.53224 19.0646 8.88754 19.4374 9.25933C18.8936 9.8 18.3313 10.3592 17.7422 10.9462C18.2922 11.1151 18.7999 11.2707 19.3375 11.4354C19.0213 11.7681 18.735 12.0739 18.4446 12.3757C17.1398 13.7361 15.8329 15.0945 14.5301 16.4571C14.4209 16.5714 14.3447 16.6095 14.1892 16.5127C11.148 14.5992 8.10167 12.6939 5.05533 10.7856C5.01207 10.7588 4.97191 10.7279 4.90909 10.6836Z" fill="white"/>
<path d="M24.7175 16.8258C24.8792 17.3541 25.0326 17.8577 25.1871 18.3654C25.7505 17.7969 26.3087 17.2336 26.8473 16.6898C27.2417 17.0873 27.595 17.4427 27.9647 17.8134C27.943 17.8371 27.8895 17.8989 27.8318 17.9576C27.184 18.6064 26.5404 19.2593 25.8833 19.8989C25.7371 20.041 25.7175 20.1605 25.7793 20.3458C25.9564 20.8865 26.1119 21.4354 26.2747 21.9761C26.8689 21.3788 27.4518 20.7928 28.011 20.2305C28.4168 20.6373 28.7752 20.9967 29.148 21.3695C28.596 21.9215 28.0079 22.5065 27.424 23.0946C27.2191 23.3005 26.9132 23.4859 26.8524 23.73C26.7906 23.9741 26.9739 24.281 27.0574 24.558C27.4271 25.7938 27.8009 27.0286 28.1655 28.2665C28.1912 28.3551 28.1851 28.5024 28.1284 28.559C27.253 29.4519 26.3674 30.3345 25.4673 31.2356C25.4106 31.1532 25.3622 31.0894 25.32 31.0214C23.4394 28.0194 21.5599 25.0163 19.6753 22.0163C19.5785 21.8618 19.5373 21.7629 19.699 21.6095C21.3323 20.0564 22.9554 18.4941 24.5826 16.9349C24.6176 16.902 24.6578 16.8742 24.7196 16.8247L24.7175 16.8258Z" fill="white"/>
</svg>
