<svg width="70" height="70" viewBox="0 0 70 70" fill="none" xmlns="http://www.w3.org/2000/svg">
<path d="M0.641602 24.5139H69.3366V64.1539H0.641602V24.5139ZM34.085 57.7276C36.0008 49.0336 37.9005 40.4101 39.8136 31.7296C38.4925 31.4339 37.217 31.1464 35.8905 30.8507C33.9747 39.5447 32.0723 48.171 30.1619 56.8406C31.4615 57.1336 32.7208 57.4184 34.0823 57.7276H34.085ZM28.0308 50.8836C25.854 48.6999 23.6422 46.481 21.4035 44.2376C23.6045 42.0214 25.8002 39.8106 27.9286 37.6703C26.9787 36.7046 26.0585 35.7687 25.1894 34.8817C22.0923 38.0066 18.9522 41.1723 15.9089 44.2403C19.0141 47.3707 22.165 50.5472 25.262 53.6695C26.1042 52.8232 27.0191 51.9009 28.0335 50.8836H28.0308ZM41.9582 37.6838C44.135 39.8675 46.3441 42.0892 48.5666 44.319C46.3602 46.5434 44.1646 48.7542 42.0308 50.9053C42.9914 51.8819 43.9143 52.8177 44.7242 53.6397C47.8321 50.5065 50.9803 47.33 54.0154 44.2702C50.9533 41.1832 47.8132 38.0175 44.7189 34.8979C43.874 35.7497 42.9591 36.672 41.9582 37.6838Z" fill="#ED4D1A"/>
<path d="M69.3635 6V20.3771H0.63623V6H69.3635ZM10.4494 11.1378V15.1335H14.3779V11.1378H10.4494ZM31.2247 11.1649H27.2747V15.1145H31.2247V11.1649ZM18.893 11.154V15.1227H22.8107V11.154H18.893Z" fill="#ED4D1A"/>
</svg>
