<svg width="70" height="70" viewBox="0 0 70 70" fill="none" xmlns="http://www.w3.org/2000/svg">
<g clip-path="url(#clip0_2048_501)">
<path d="M33.1558 42.4953H32.1318C26.1792 42.4953 20.2293 42.4953 14.2767 42.4953C12.308 42.4953 11.4206 41.2447 12.0786 39.3989C16.5376 26.9012 20.9993 14.4034 25.4583 1.90843C25.9116 0.638721 26.5041 0.220947 27.8476 0.220947C35.7744 0.220947 43.7039 0.220947 51.6307 0.220947C53.7632 0.220947 54.6725 1.73367 53.6485 3.59591C49.408 11.3124 45.162 19.029 40.9214 26.7455C40.804 26.9585 40.7057 27.1769 40.5474 27.491H41.3583C46.6064 27.491 51.8518 27.4991 57.1 27.4828C58.0611 27.48 58.8557 27.7121 59.3172 28.6187C59.7677 29.5006 59.4974 30.2707 58.9595 31.027C50.0224 43.6203 41.0907 56.2164 32.1646 68.8151C31.6348 69.5633 31.0341 70.1285 30.0457 70.0302C28.7787 69.9046 27.9868 68.7878 28.2435 67.4826C29.1582 62.8516 30.0812 58.2233 30.9986 53.595C31.6922 50.0999 32.3857 46.6075 33.0738 43.1124C33.1093 42.935 33.1203 42.7547 33.153 42.4953H33.1558Z" fill="#ED4D1A"/>
<path d="M16.4859 14.6411C16.4641 14.7421 16.434 15.0152 16.3439 15.2664C13.455 23.3788 10.5606 31.4913 7.65803 39.5983C7.29759 40.6086 6.48389 41.1411 5.53366 41.0646C4.64077 40.9909 3.87621 40.3765 3.71784 39.4864C3.64685 39.0822 3.67961 38.6126 3.81887 38.2248C6.6996 30.1096 9.59945 21.9999 12.502 13.8929C12.8925 12.8061 13.84 12.2791 14.9158 12.4976C15.8033 12.6778 16.475 13.5243 16.4832 14.6411H16.4859Z" fill="#ED4D1A"/>
<path d="M52.1495 54.1711C51.9693 54.5779 51.8519 55.0285 51.6034 55.3862C48.4278 59.9516 45.2385 64.5089 42.0383 69.058C41.301 70.1066 40.0887 70.3414 39.122 69.6751C38.1663 69.0143 37.9643 67.7583 38.6851 66.7234C41.8799 62.1443 45.0828 57.5679 48.294 52.9997C48.8947 52.145 49.7712 51.8583 50.6723 52.1614C51.5379 52.4535 52.073 53.2126 52.1495 54.1738V54.1711Z" fill="#ED4D1A"/>
<path d="M63.3995 2.56116C63.3394 2.72772 63.2493 3.10727 63.0691 3.43767C60.6416 7.87208 58.2059 12.301 55.7621 16.7273C55.1232 17.885 53.9354 18.27 52.8923 17.6884C51.8765 17.1232 51.5543 15.9081 52.1632 14.7968C54.6125 10.3214 57.0728 5.8542 59.5357 1.38702C60.0655 0.428598 60.9857 0.0353988 61.9332 0.308454C62.8533 0.573317 63.4404 1.38429 63.3995 2.56116Z" fill="#ED4D1A"/>
<path d="M20.6799 63.365C20.9257 62.1308 21.2151 60.6864 21.5046 59.2419C22.2254 55.6376 22.9436 52.036 23.6726 48.4317C23.9347 47.1319 24.9614 46.381 26.1055 46.6186C27.2742 46.8643 27.9268 47.9238 27.6729 49.2153C26.7063 54.1112 25.7342 59.0071 24.7512 63.8975C24.5136 65.0798 23.5415 65.8034 22.4521 65.6642C21.4254 65.5331 20.669 64.6457 20.6799 63.3623V63.365Z" fill="#ED4D1A"/>
<path d="M58.0722 44.8326C57.2749 44.8244 56.6741 44.4667 56.2973 43.7759C55.8768 43.0031 55.9669 42.244 56.4721 41.5368C57.8264 39.6336 59.1863 37.7359 60.5433 35.8354C60.7809 35.5023 61.0103 35.1637 61.256 34.8415C62.0015 33.864 63.2056 33.651 64.1367 34.3227C65.0761 34.9999 65.2863 36.2095 64.5818 37.2171C63.3094 39.0384 62.0042 40.8378 60.7126 42.6454C60.3959 43.0878 60.0873 43.5356 59.7624 43.9725C59.3419 44.5322 58.7876 44.8408 58.0749 44.838L58.0722 44.8326Z" fill="#ED4D1A"/>
</g>
<defs>
<clipPath id="clip0_2048_501">
<rect width="70" height="70" fill="white"/>
</clipPath>
</defs>
</svg>
