<svg width="70" height="70" viewBox="0 0 70 70" fill="none" xmlns="http://www.w3.org/2000/svg">
<path d="M40.9975 10.1549V6.10823C40.3869 6.10823 39.7818 6.11097 39.1795 6.10823C37.8489 6.10002 36.9234 5.26496 36.9152 4.07123C36.907 2.87476 37.8324 2.00958 39.1494 2.00684C41.7695 2.00137 44.3897 2.00137 47.0099 2.00684C48.2885 2.00958 49.203 2.85833 49.2167 4.03016C49.2331 5.22936 48.3077 6.09728 46.9935 6.10823C46.4021 6.11371 45.8107 6.10823 45.17 6.10823V10.2041C45.5917 10.2041 46.016 10.2041 46.4432 10.2041C48.0394 10.2041 49.6328 10.1905 51.229 10.2096C52.4091 10.2233 53.3071 11.0556 53.3126 12.211C53.3317 16.9284 53.3208 21.6431 53.318 26.3605C53.318 26.4454 53.2825 26.533 53.2578 26.6453C46.3774 26.314 40.3924 28.4195 35.5353 33.3258C30.6783 38.2349 28.6248 44.2336 29.0492 51.2235H28.3428C19.6856 51.2235 11.0256 51.2235 2.36829 51.2235C0.810421 51.2235 0 50.4213 0 48.8771C0 36.7756 0 24.6767 0 12.5806C0 10.9927 0.79947 10.2096 2.40936 10.2069C4.31768 10.2069 6.22601 10.2069 8.16718 10.2069V6.10823C7.56211 6.10823 6.95703 6.11097 6.35195 6.10823C5.0268 6.09728 4.10413 5.25127 4.10139 4.0548C4.10139 2.86107 5.0268 2.00684 6.34921 2.00411C8.94749 1.99863 11.543 1.99863 14.1413 2.00411C15.4719 2.00411 16.3973 2.84464 16.4028 4.04111C16.411 5.24032 15.4884 6.09454 14.1659 6.10549C13.5773 6.11097 12.9859 6.10549 12.3507 6.10549V10.1658H24.5536V6.10823C23.9184 6.10823 23.2887 6.11645 22.6589 6.10823C21.405 6.08907 20.4905 5.20198 20.5042 4.03016C20.5179 2.88845 21.4241 2.01506 22.6425 2.00958C25.3092 1.99863 27.9732 1.99863 30.6399 2.00958C31.9021 2.01506 32.8166 2.8994 32.8056 4.07397C32.7974 5.24853 31.8857 6.09728 30.6098 6.11097C29.9993 6.11918 29.3887 6.11097 28.7453 6.11097V10.1576H40.992L40.9975 10.1549ZM14.3412 24.559C14.9791 24.559 15.617 24.5645 16.255 24.559C17.5308 24.5453 18.4453 23.6993 18.4562 22.5275C18.4672 21.3556 17.5527 20.4768 16.2906 20.4658C14.9928 20.4549 13.695 20.4521 12.3973 20.4658C11.1816 20.4795 10.2754 21.3529 10.2644 22.4946C10.2535 23.6336 11.1597 24.5289 12.3644 24.5563C13.0242 24.57 13.6841 24.5563 14.3466 24.559H14.3412ZM26.6618 20.4631C25.9773 20.4631 25.2955 20.4467 24.6138 20.4658C23.4529 20.4987 22.5658 21.3967 22.5658 22.5083C22.5658 23.6199 23.4529 24.5289 24.6138 24.5508C25.98 24.5754 27.3462 24.5754 28.7125 24.5508C29.8815 24.5289 30.7604 23.6281 30.7604 22.5083C30.7604 21.3885 29.8788 20.4987 28.7125 20.4658C28.0307 20.4467 27.3462 20.4631 26.6645 20.4631H26.6618ZM38.903 24.559C39.6093 24.559 40.3157 24.5782 41.0194 24.5563C42.183 24.5207 43.0618 23.6226 43.0591 22.5056C43.0564 21.3885 42.172 20.4905 41.0057 20.4713C39.6395 20.4494 38.2732 20.4467 36.907 20.4713C35.7489 20.4932 34.8618 21.4077 34.8673 22.5193C34.87 23.6308 35.7598 24.5234 36.9207 24.5563C37.5805 24.5754 38.2404 24.559 38.903 24.559ZM14.3795 28.6659C13.695 28.6659 13.0133 28.6522 12.3315 28.6686C11.1625 28.6987 10.2726 29.5749 10.2589 30.6892C10.2453 31.8254 11.1488 32.7399 12.3507 32.7563C13.695 32.7755 15.0366 32.7782 16.3809 32.7563C17.5555 32.7371 18.4371 31.8555 18.4508 30.7385C18.4645 29.594 17.5664 28.696 16.359 28.6686C15.6992 28.6549 15.0393 28.6686 14.3768 28.6686L14.3795 28.6659ZM26.6481 32.7618C27.3325 32.7618 28.0143 32.7782 28.696 32.759C29.8651 32.7262 30.7467 31.8446 30.7549 30.7275C30.7604 29.6104 29.8815 28.696 28.7207 28.6741C27.3545 28.6494 25.9882 28.6522 24.622 28.6741C23.4584 28.6932 22.5686 29.5913 22.5631 30.7056C22.5576 31.8172 23.442 32.7234 24.6001 32.7618C25.2819 32.7837 25.9663 32.7645 26.6481 32.7673V32.7618ZM14.3412 40.9646C15.0256 40.9646 15.7074 40.981 16.3891 40.9618C17.5609 40.929 18.4426 40.0501 18.4508 38.933C18.459 37.816 17.5801 36.8988 16.4192 36.8769C15.053 36.8495 13.6868 36.8549 12.3206 36.8769C11.157 36.896 10.2672 37.7913 10.2589 38.9029C10.2507 40.0145 11.1351 40.9235 12.2905 40.9618C12.9722 40.9837 13.6567 40.9673 14.3384 40.9673L14.3412 40.9646Z" fill="#ED4D1A"/>
<path d="M51.5601 30.7112C61.7451 30.7194 70.0273 39.0344 69.9999 49.2195C69.9726 59.3771 61.6822 67.6346 51.5245 67.6264C41.3422 67.6155 33.0601 59.3004 33.0874 49.1154C33.1148 38.9605 41.4052 30.703 51.5629 30.7112H51.5601ZM53.5889 47.1195C53.5889 45.0277 53.5999 43.0263 53.5834 41.0276C53.5725 39.8147 52.6772 38.9167 51.5355 38.9194C50.3938 38.9222 49.5039 39.8257 49.4957 41.0386C49.482 43.7245 49.482 46.4104 49.4957 49.0962C49.5012 50.3365 50.3636 51.1962 51.6039 51.2127C52.9236 51.2291 54.2433 51.2291 55.5657 51.2127C56.784 51.199 57.6821 50.3201 57.6876 49.1756C57.693 48.0312 56.7923 47.1469 55.5821 47.1222C54.9496 47.1085 54.3144 47.1222 53.5889 47.1222V47.1195Z" fill="#ED4D1A"/>
</svg>
