<svg width="70" height="70" viewBox="0 0 70 70" fill="none" xmlns="http://www.w3.org/2000/svg">
<path d="M19.6056 32.9835C19.5768 24.471 26.6578 17.5223 35.4279 17.4609C44.1377 17.3994 51.3078 24.3456 51.3418 32.8786C51.3785 41.4627 44.3053 48.4345 35.5326 48.4601C26.7651 48.4882 19.6344 41.56 19.6056 32.9809V32.9835ZM33.5162 39.62C37.0043 36.2109 40.5422 32.7532 44.0042 29.3697C43.1322 28.5123 42.2339 27.6293 41.2676 26.6797C38.7065 29.1905 36.1009 31.7448 33.3905 34.4014C32.309 33.3111 31.2589 32.2515 30.2664 31.2508C29.3393 32.1491 28.4464 33.0142 27.5979 33.8358C29.5515 35.7451 31.5338 37.6825 33.5188 39.62H33.5162Z" fill="#ED4D1A"/>
<path d="M54.652 6.02807C56.2127 7.63024 57.8756 9.09677 59.2373 10.7911C61.2328 13.2814 60.9474 16.9592 58.7686 19.3343C58.161 19.9972 57.4435 20.5654 56.7888 21.1643C57.2995 22.1931 57.7499 23.1068 58.1898 23.9949C58.8995 23.5214 59.5594 22.9379 60.3346 22.6001C61.1935 22.2264 62.1441 21.9218 63.0711 21.8706C65.0038 21.7606 66.9469 21.8374 68.9423 21.8374C68.9607 22.0063 68.9921 22.165 68.9947 22.3262C68.9973 24.1997 69.0156 26.0757 68.9921 27.9492C68.9423 31.8087 65.881 34.8058 61.9294 34.8851C61.2983 34.8979 60.6698 34.8851 59.9941 34.8851C59.8108 36.0803 59.6301 37.2474 59.439 38.4887C60.1408 38.4887 60.8112 38.4887 61.4816 38.4887C65.9596 38.5041 68.9973 41.4704 68.9999 45.8316C68.9999 47.467 68.9999 49.1025 68.9999 50.8147C68.4893 50.8147 68.0389 50.8147 67.5858 50.8147C65.9072 50.8096 64.226 50.8556 62.5526 50.7865C59.5751 50.6637 57.4802 49.2048 56.1996 46.5943C56.163 46.5175 56.1237 46.4433 56.0818 46.3716C56.0713 46.3563 56.0451 46.3511 56.0634 46.3614C54.851 47.7767 53.6437 49.1844 52.4182 50.6151C52.5046 50.6381 52.6172 50.6893 52.7324 50.7021C56.3358 51.086 58.9362 53.5302 59.2242 57.0263C59.384 58.9689 59.253 60.9345 59.253 62.8796C59.2007 62.9129 59.1666 62.9538 59.13 62.9538C56.7993 62.9385 54.4608 63.0434 52.1406 62.8719C48.7886 62.6262 46.0678 59.6906 45.9761 56.3967C45.9238 54.5437 45.9421 52.6907 45.9709 50.8377C45.9735 50.6074 46.1882 50.2951 46.3977 50.1621C51.4231 46.9731 54.6624 42.5581 55.7047 36.7765C56.8726 30.3038 55.2307 24.5196 50.682 19.6261C48.0161 16.757 47.9585 12.6748 50.7003 9.8825C51.9625 8.59513 53.2824 7.36151 54.6546 6.02295L54.652 6.02807Z" fill="#ED4D1A"/>
<path d="M11.7834 62.9641C11.7834 60.7527 11.5687 58.6003 11.8332 56.5067C12.2417 53.2691 14.8578 51.045 18.1888 50.7097C18.3145 50.6969 18.4402 50.6739 18.5895 50.6534C17.3613 49.2304 16.1593 47.8355 14.9469 46.4304C14.7164 46.8323 14.5043 47.2725 14.2267 47.6692C12.844 49.6476 10.9271 50.7328 8.46814 50.7942C6.44387 50.8454 4.41698 50.8147 2.39008 50.8172C2.28534 50.8172 2.18059 50.784 2.06798 50.766C2.06798 48.7236 1.89515 46.6889 2.10464 44.6901C2.49221 41.0301 5.46446 38.5655 9.28256 38.4989C10.021 38.4861 10.7569 38.4989 11.5216 38.4989C11.3383 37.2934 11.1602 36.1443 10.969 34.8953C10.385 34.8953 9.76179 34.9055 9.14115 34.8953C5.7918 34.8364 3.04215 32.7275 2.24344 29.582C2.11512 29.0702 2.04441 28.5327 2.03656 28.0054C2.01037 26.1115 2.02608 24.215 2.02608 22.3211C2.02608 22.1777 2.04703 22.0344 2.05751 21.9013C4.26771 21.9013 6.44649 21.8015 8.60955 21.9346C10.2174 22.0344 11.5635 22.8867 12.7314 24.0563C13.208 23.1068 13.6637 22.1982 14.1848 21.1591C13.7134 20.7342 13.1845 20.2915 12.6948 19.8103C9.71203 16.8721 9.70679 12.6594 12.6817 9.71099C13.902 8.5004 15.1354 7.30261 16.4605 6.00244C18.0658 7.67372 19.7915 9.17607 21.148 10.9446C23.1277 13.527 22.714 17.1844 20.3755 19.562C17.3508 22.6384 15.5832 26.3111 15.1014 30.5034C14.1665 38.6269 17.2121 45.0791 24.0338 49.7935C24.754 50.29 25.0944 50.7353 25.042 51.6183C24.9478 53.2102 25.0865 54.8175 24.9713 56.4069C24.7042 60.1283 22.0357 62.7363 18.2281 62.9436C16.0834 63.0613 13.9256 62.9641 11.7834 62.9641Z" fill="#ED4D1A"/>
</svg>
