<svg width="70" height="70" viewBox="0 0 70 70" fill="none" xmlns="http://www.w3.org/2000/svg">
<path d="M45.6362 48.7964C45.6362 44.0614 45.6362 39.3237 45.6362 34.5887C45.6362 33.3236 45.9542 32.1511 46.6901 31.1162C47.5075 29.9675 48.5982 29.3482 50.0306 29.3641C51.6916 29.3799 53.3553 29.3667 55.0163 29.3667C57.5262 29.3667 59.2083 30.7695 59.6735 33.2812C59.7602 33.755 59.8102 34.242 59.8102 34.7237C59.818 44.1514 59.8154 53.579 59.818 63.0067C59.818 64.3883 59.4843 65.6667 58.638 66.773C57.8443 67.8079 56.8035 68.3716 55.4815 68.3637C53.7968 68.3557 52.1148 68.3637 50.4301 68.3637C47.9438 68.3637 46.267 66.99 45.7913 64.5153C45.6809 63.9384 45.6467 63.3349 45.6441 62.7447C45.6336 58.097 45.6389 53.4493 45.6389 48.8017L45.6362 48.7964Z" fill="#ED4D1A"/>
<path d="M47.4523 11.1991C46.165 10.5517 44.9455 9.93125 43.7181 9.32429C43.1683 9.05183 42.7774 8.68225 42.8113 7.99706C42.8425 7.34154 43.2595 7.02592 43.7911 6.79392C48.0334 4.93527 52.2705 3.06852 56.5129 1.20716C57.6282 0.716199 58.3292 1.10196 58.5298 2.32667C59.3481 7.31726 60.1585 12.3105 60.9767 17.3011C61.0653 17.8461 60.9012 18.2804 60.4816 18.5987C60.0542 18.9224 59.5904 18.9197 59.1396 18.6445C58.0582 17.9836 56.9845 17.3092 55.9057 16.6429C55.7051 16.5188 55.4966 16.4055 55.2542 16.2652C54.9989 16.6807 54.7643 17.053 54.5376 17.4306C51.9109 21.7927 48.9142 25.8418 45.1409 29.2246C40.4399 33.4356 35.0171 36.0469 28.8881 37.0854C22.8582 38.1078 16.8856 37.6169 10.9416 36.3571C10.6237 36.2896 10.3031 36.233 9.99044 36.1467C9.34158 35.9686 8.92725 35.3671 9.01064 34.7574C9.09924 34.1127 9.60999 33.6972 10.2953 33.6757C12.4582 33.6055 14.6419 33.6945 16.7839 33.4248C30.5533 31.6902 41.0575 24.9785 47.2256 11.7629C47.2986 11.6038 47.3585 11.4392 47.4549 11.2045L47.4523 11.1991Z" fill="#ED4D1A"/>
<path d="M42.086 54.1556C42.086 57.2396 42.0965 60.3236 42.0808 63.4076C42.0729 64.6171 41.7025 65.7318 40.9775 66.7072C40.1711 67.7905 39.1046 68.3741 37.7282 68.3636C36.068 68.3505 34.4079 68.361 32.7477 68.361C30.1866 68.361 28.5265 66.9886 28.051 64.4567C27.967 64.0097 27.9197 63.547 27.9171 63.0921C27.9092 57.1423 27.9144 51.1926 27.9092 45.2454C27.9092 43.9177 28.2402 42.6925 29.0466 41.6277C29.8425 40.5734 30.8932 39.9923 32.2434 40.0002C33.9246 40.0081 35.6083 40.0002 37.2895 40.0002C39.8138 40.0002 41.4792 41.37 41.9442 43.8703C42.044 44.4041 42.0808 44.9535 42.0834 45.4978C42.0965 48.3846 42.0887 51.2714 42.0887 54.1582H42.0834L42.086 54.1556Z" fill="#ED4D1A"/>
<path d="M23.1529 58.889C23.1529 60.5454 23.1896 62.2019 23.1398 63.8558C23.1031 65.1063 22.6231 66.2231 21.7314 67.1509C20.9525 67.9628 19.99 68.3737 18.8282 68.3636C17.1497 68.351 15.4713 68.3611 13.7928 68.3611C11.2725 68.3611 9.57042 66.9845 9.14293 64.5692C9.05639 64.0751 9.0118 63.5709 9.00918 63.0691C8.99607 60.2177 8.99869 57.3662 9.00656 54.5173C9.00918 53.2517 9.32651 52.0667 10.129 51.0406C10.9184 50.0271 11.9491 49.4472 13.3024 49.4548C15.0018 49.4649 16.7039 49.4548 18.4034 49.4548C20.8791 49.4548 22.5235 50.6977 22.9955 53.0525C23.1791 53.9677 23.145 54.9257 23.1686 55.8661C23.1949 56.8721 23.1739 57.878 23.1739 58.884C23.166 58.884 23.1581 58.884 23.1503 58.884L23.1529 58.889Z" fill="#ED4D1A"/>
</svg>
