<svg width="97" height="30" viewBox="0 0 97 30" fill="none" xmlns="http://www.w3.org/2000/svg">
<path d="M2 13C0.895431 13 0 13.8954 0 15C0 16.1046 0.895431 17 2 17V13ZM95.9142 16.4142C96.6953 15.6332 96.6953 14.3668 95.9142 13.5858L83.1863 0.857864C82.4052 0.0768158 81.1389 0.0768158 80.3579 0.857864C79.5768 1.63891 79.5768 2.90524 80.3579 3.68629L91.6716 15L80.3579 26.3137C79.5768 27.0948 79.5768 28.3611 80.3579 29.1421C81.1389 29.9232 82.4052 29.9232 83.1863 29.1421L95.9142 16.4142ZM2 17H94.5V13H2V17Z" fill="white"/>
</svg>
