<svg width="36" height="36" viewBox="0 0 36 36" fill="none" xmlns="http://www.w3.org/2000/svg">
<path d="M18.4322 26.8009C22.5506 26.8009 26.6677 26.7968 30.7861 26.8022C32.3753 26.8049 33.5615 27.9911 33.5453 29.537C33.5304 30.9585 32.3659 32.1528 30.9376 32.2083C30.8483 32.2123 30.7577 32.211 30.6671 32.211C22.4992 32.211 14.33 32.211 6.16211 32.211C4.87181 32.211 3.92099 31.6253 3.49629 30.5771C2.73482 28.6998 4.00078 26.8104 6.04444 26.8049C10.1737 26.7941 14.3029 26.8022 18.4322 26.8022V26.8009ZM20.5178 28.9703C20.2243 28.9676 19.9808 29.2043 19.9768 29.4951C19.9741 29.7751 20.2283 30.0375 20.507 30.0402C20.7856 30.0429 21.0439 29.7873 21.0466 29.5046C21.0493 29.2138 20.8099 28.9717 20.5164 28.969L20.5178 28.9703ZM12.6867 29.5113C12.6921 29.2043 12.4676 28.9703 12.166 28.969C11.8833 28.969 11.652 29.1894 11.6385 29.4735C11.6249 29.767 11.8589 30.0267 12.1457 30.0388C12.4351 30.051 12.6813 29.8102 12.6853 29.51L12.6867 29.5113ZM16.3412 28.9703C16.0545 28.9663 15.8083 29.2111 15.8097 29.5019C15.8097 29.7832 16.072 30.0469 16.3439 30.0402C16.6036 30.0334 16.8511 29.7818 16.8592 29.5154C16.8687 29.2273 16.6279 28.9744 16.3412 28.9703ZM29.3782 29.4856C29.3714 29.1867 29.1293 28.9582 28.8344 28.9703C28.5518 28.9825 28.3408 29.2097 28.3408 29.5005C28.3408 29.7994 28.5802 30.0456 28.8655 30.0402C29.1496 30.0361 29.3849 29.7818 29.3782 29.4856ZM25.1989 29.4883C25.1934 29.2043 24.9622 28.9717 24.6835 28.9703C24.3901 28.9703 24.152 29.2165 24.1601 29.514C24.1669 29.7886 24.4117 30.0375 24.6768 30.0402C24.9554 30.0442 25.2056 29.7805 25.1989 29.4883ZM8.49927 29.4843C8.49251 29.1976 8.26393 28.9703 7.98531 28.9703C7.69317 28.9703 7.46459 29.2151 7.47406 29.5195C7.48217 29.8062 7.71481 30.0415 7.98802 30.0402C8.2734 30.0402 8.50739 29.7845 8.50062 29.4829L8.49927 29.4843Z" fill="white"/>
<path d="M26.2566 11.0359C26.2566 11.3957 26.2621 11.7554 26.2553 12.1152C26.2485 12.502 26.0592 12.6846 25.6724 12.7049C25.4492 12.7157 25.2193 12.7049 25.0042 12.7577C24.1684 12.9551 23.8451 13.9276 24.3848 14.5944C24.497 14.7337 24.6404 14.8486 24.7581 14.9839C24.9785 15.2355 24.9907 15.5357 24.7621 15.7711C24.2373 16.3121 23.7058 16.8463 23.1634 17.3697C22.8862 17.6375 22.6102 17.6119 22.3113 17.3048C22.0151 17.0019 21.7162 16.7273 21.2483 16.7381C20.6234 16.7516 20.1338 17.2115 20.1067 17.8337C20.0761 18.5225 19.7109 18.867 19.0112 18.867C18.4932 18.867 17.9765 18.8683 17.4585 18.867C16.8972 18.8643 16.7335 18.6993 16.7295 18.1474C16.7295 17.9906 16.739 17.8283 16.7078 17.6768C16.6159 17.2372 16.3602 16.9221 15.922 16.7909C15.4919 16.661 15.101 16.7516 14.767 17.0614C14.042 17.7309 14.0204 17.7295 13.313 17.0222C12.9154 16.6245 12.515 16.2296 12.1214 15.8279C11.8198 15.5209 11.8266 15.226 12.139 14.9244C12.4717 14.6052 12.7652 14.2576 12.7233 13.7626C12.6706 13.1458 12.2134 12.7549 11.525 12.7049C11.3911 12.6954 11.2545 12.7076 11.1206 12.7022C10.7933 12.6887 10.5863 12.5047 10.5823 12.1788C10.5715 11.4146 10.5715 10.6491 10.5823 9.88354C10.5863 9.563 10.7811 9.37364 11.1111 9.33983C11.2666 9.3236 11.4262 9.33442 11.5831 9.33036C12.0714 9.31819 12.4244 9.0815 12.6111 8.64058C12.8031 8.18883 12.726 7.75738 12.3906 7.38814C11.7238 6.65507 11.7238 6.61856 12.4149 5.92742C12.7964 5.54601 13.1764 5.16189 13.5605 4.78183C13.9392 4.40854 14.1692 4.43694 14.5682 4.78724C14.8211 5.01041 15.1267 5.23357 15.4432 5.31202C16.0776 5.47026 16.67 4.9252 16.7268 4.20836C16.739 4.06364 16.7268 3.91622 16.7322 3.77014C16.743 3.41173 16.9378 3.18721 17.2867 3.1818C18.0401 3.16963 18.7948 3.16963 19.5481 3.1818C19.8917 3.18721 20.0973 3.4266 20.1013 3.77555C20.104 3.93245 20.0905 4.09069 20.1067 4.24758C20.1987 5.1673 21.1238 5.61498 21.9015 5.11726C21.9962 5.05639 22.0855 4.98741 22.1666 4.91032C22.7496 4.3612 22.8483 4.3612 23.4245 4.93602C23.8383 5.34989 24.2563 5.7597 24.6661 6.17628C25.0259 6.54146 25.0164 6.82684 24.6377 7.1785C24.3009 7.49093 24.0696 7.85747 24.1237 8.3322C24.1968 8.97194 24.7567 9.3804 25.4911 9.35741C26.0916 9.33848 26.2553 9.49537 26.2566 10.0918C26.2566 10.407 26.2566 10.7221 26.2566 11.0372V11.0359ZM21.627 11.0535C21.6567 9.23163 20.2799 7.81689 18.4418 7.78037C16.6483 7.74385 15.2214 9.15994 15.1957 10.998C15.1714 12.8118 16.5388 14.2238 18.3539 14.2562C20.2055 14.2901 21.5972 12.9281 21.627 11.0535Z" fill="white"/>
<path d="M31.9358 25.8C31.4029 25.773 30.9119 25.7297 30.4209 25.727C28.5423 25.7189 26.665 25.7229 24.7863 25.7229C24.6632 25.7229 24.5402 25.7229 24.3752 25.7229C24.3697 25.6012 24.3616 25.4944 24.3603 25.3875C24.3603 23.9254 24.3589 22.4634 24.3603 21.0026C24.3603 20.49 24.5361 20.3088 25.0433 20.3074C27.1127 20.3047 29.182 20.3047 31.2514 20.3074C31.7667 20.3074 31.933 20.4779 31.933 20.9972C31.9344 22.5269 31.933 24.0553 31.933 25.585V25.7987L31.9358 25.8Z" fill="white"/>
<path d="M12.454 25.7744H4.89337C4.89337 25.7378 4.89337 25.631 4.89337 25.5255C4.89337 24.0296 4.89337 22.5351 4.89337 21.0392C4.89337 20.4684 5.04891 20.3102 5.6048 20.3088C7.65116 20.3075 9.69753 20.3075 11.7439 20.3088C12.2998 20.3088 12.4716 20.4806 12.4716 21.0311C12.4729 22.481 12.4716 23.9322 12.4716 25.3821C12.4716 25.4809 12.4634 25.5809 12.454 25.7744Z" fill="white"/>
<path d="M22.2016 25.7107H14.6492C14.6424 25.593 14.6316 25.4848 14.6316 25.3766C14.6316 23.9253 14.6302 22.4741 14.6316 21.0228C14.6316 20.4764 14.7912 20.31 15.3254 20.3087C17.384 20.306 19.4439 20.3073 21.5024 20.3087C22.038 20.3087 22.2016 20.4778 22.2016 21.0188C22.2016 22.5701 22.2016 24.1214 22.2016 25.7107Z" fill="white"/>
</svg>
