<svg width="36" height="36" viewBox="0 0 36 36" fill="none" xmlns="http://www.w3.org/2000/svg">
<path d="M22.68 24.4805H21.8402V15.7732H7.41377V26.2312H17.357C16.3226 28.1788 16.5778 29.9087 18.1076 31.4668C18.0193 31.4734 17.946 31.4832 17.8726 31.4832C14.5472 31.4832 11.2218 31.4843 7.89642 31.4832C7.0959 31.4832 6.54627 30.9186 6.54627 30.0958C6.54521 24.8712 6.54521 19.6454 6.54627 14.4186C6.54627 12.5793 7.90811 10.9009 9.66649 10.5595C9.75261 10.5431 9.83766 10.5212 9.93652 10.4993V9.6546H19.2728V10.4774C19.5747 10.566 19.8596 10.6284 20.1286 10.7313C21.6828 11.3243 22.68 12.8069 22.68 14.5127C22.68 17.7263 22.68 20.9398 22.68 24.1545V24.4805Z" fill="white"/>
<path d="M14.6168 4.90965C16.2042 4.90965 17.7926 4.90965 19.38 4.90965C20.2194 4.90965 20.7787 5.50919 20.7809 6.4091C20.7809 6.69522 20.7831 6.98253 20.7809 7.26865C20.7731 8.0724 20.1984 8.70162 19.4561 8.70281C16.2251 8.70637 12.9953 8.70637 9.76439 8.70281C9.03636 8.70281 8.45835 8.07596 8.44621 7.29239C8.4418 6.99559 8.44401 6.69997 8.44621 6.40317C8.44952 5.51988 9.00989 4.91202 9.82617 4.90965C11.4234 4.90846 13.0196 4.90965 14.6168 4.90965Z" fill="white"/>
<path d="M23.6291 24.84V31.4644C23.5568 31.4703 23.4844 31.481 23.4121 31.481C22.5389 31.481 21.6658 31.487 20.7926 31.481C19.3234 31.4715 18.1192 30.2013 17.9521 28.4938C17.7941 26.8885 18.7213 25.3533 20.1008 24.9422C20.2557 24.8959 20.4156 24.8472 20.5736 24.846C21.5822 24.8377 22.5909 24.8412 23.6291 24.8412V24.84Z" fill="white"/>
<path d="M24.5782 31.471V24.8547C24.6587 24.8499 24.7391 24.8416 24.8206 24.8416C25.6763 24.8416 26.5319 24.838 27.3886 24.8416C28.8789 24.8475 30.0768 26.0967 30.254 27.8268C30.4201 29.4429 29.4646 30.9996 28.0589 31.3938C27.8796 31.4437 27.6911 31.4758 27.5068 31.4782C26.5829 31.4865 25.66 31.4829 24.7361 31.4829C24.6872 31.4829 24.6383 31.477 24.5792 31.4734L24.5782 31.471Z" fill="white"/>
<path d="M13.3675 22.4688C12.8251 22.4688 12.317 22.47 11.8089 22.4688C11.438 22.4677 11.2946 22.3013 11.2925 21.8772C11.2904 21.3236 11.2904 20.7712 11.2925 20.2176C11.2936 19.7769 11.4338 19.6225 11.8287 19.6225C12.3295 19.6225 12.8293 19.6225 13.3675 19.6225C13.3675 19.12 13.3675 18.6305 13.3675 18.1399C13.3675 17.3059 13.4163 17.2489 14.1405 17.2489C14.5551 17.2489 14.9697 17.2453 15.3843 17.2489C15.7043 17.2525 15.8549 17.4259 15.857 17.7977C15.8601 18.3894 15.857 18.9822 15.857 19.6201C16.0274 19.6201 16.1874 19.6201 16.3475 19.6201C16.7277 19.6201 17.108 19.6153 17.4883 19.6225C17.7647 19.6272 17.9258 19.8042 17.9299 20.1167C17.9361 20.7297 17.9361 21.3415 17.9299 21.9545C17.9268 22.2812 17.7647 22.4629 17.4748 22.4665C16.9491 22.4724 16.4223 22.4677 15.8581 22.4677C15.8581 22.9714 15.8581 23.4608 15.8581 23.9503C15.8581 24.7795 15.8051 24.84 15.0819 24.84C14.6933 24.84 14.3047 24.84 13.9151 24.84C13.5078 24.84 13.3675 24.682 13.3664 24.2247C13.3654 23.6533 13.3664 23.0807 13.3664 22.4688H13.3675Z" fill="white"/>
</svg>
