<svg width="36" height="36" viewBox="0 0 36 36" fill="none" xmlns="http://www.w3.org/2000/svg">
<path d="M20.2206 21.3436H23.063C23.063 21.216 23.063 21.1015 23.063 20.9869C23.063 18.6187 23.069 16.2492 23.0605 13.881C23.0557 12.4187 23.5894 11.2021 24.7504 10.256C24.8124 10.2052 24.8756 10.1143 24.8768 10.0411C24.8853 9.20715 24.8829 8.37325 24.8829 7.49801C24.754 7.49801 24.6471 7.50392 24.5401 7.49801C24.0501 7.46967 23.6684 7.0728 23.6745 6.60387C23.6805 6.13141 24.0672 5.73454 24.5607 5.73218C26.5947 5.72509 28.6274 5.72627 30.6613 5.73218C31.1719 5.73336 31.567 6.13141 31.5658 6.61451C31.5658 7.0976 31.1755 7.47912 30.6601 7.4992C30.5713 7.50274 30.4826 7.4992 30.3573 7.4992C30.3573 8.08387 30.3877 8.64256 30.3488 9.19771C30.3075 9.80364 30.4497 10.2548 30.9433 10.7072C31.86 11.5482 32.1822 12.6727 32.1809 13.894C32.1736 18.3068 32.1785 22.7208 32.1785 27.1336C32.1785 27.26 32.1785 27.3864 32.1785 27.5518C32.3499 27.5518 32.4982 27.5471 32.6466 27.5518C33.1426 27.5695 33.5292 27.9357 33.5377 28.4176C33.5486 29.0164 33.5474 29.6164 33.5377 30.2165C33.5304 30.7008 33.1475 31.0681 32.6539 31.0894C32.5736 31.0929 32.4922 31.0894 32.4107 31.0894C22.7991 31.0894 13.1876 31.0894 3.57599 31.0894C2.78212 31.0894 2.45509 30.7716 2.45509 30.0003C2.45509 29.509 2.45387 29.0176 2.45509 28.5262C2.45752 27.9132 2.82345 27.5541 3.44834 27.5494C3.55775 27.5494 3.66717 27.5494 3.81671 27.5494V27.1525C3.81671 24.1051 3.82035 21.0589 3.81427 18.0115C3.81306 17.0843 4.06107 16.2492 4.68474 15.5335C5.11997 15.0338 5.65611 14.6736 6.29315 14.4716C6.49861 14.4066 6.5521 14.3169 6.55089 14.1196C6.54238 12.7731 6.54602 11.4266 6.54724 10.08C6.54724 9.28747 6.87306 8.97092 7.68273 8.97092C10.5968 8.97092 13.511 8.97092 16.4238 8.97092C17.1302 8.97092 17.4827 9.30992 17.4852 10.0044C17.4888 11.371 17.49 12.7365 17.4815 14.1031C17.4803 14.311 17.5399 14.4031 17.7539 14.4751C19.276 14.9889 20.1999 16.2929 20.2157 17.9371C20.2254 18.9494 20.2181 19.9616 20.2181 20.9739C20.2181 21.0896 20.2181 21.2066 20.2181 21.3424L20.2206 21.3436ZM8.40609 10.7557C8.39637 10.8147 8.38543 10.8525 8.38543 10.8891C8.38421 11.99 8.38786 13.0908 8.37935 14.1917C8.37813 14.3759 8.47904 14.4161 8.62371 14.4633C9.24981 14.6688 9.7823 15.0126 10.2163 15.4992C10.8631 16.2244 11.1196 17.0772 11.1172 18.0257C11.1111 21.0731 11.1147 24.1193 11.1147 27.1667C11.1147 27.2884 11.1147 27.4112 11.1147 27.527H12.925V27.1218C12.925 24.0744 12.9213 21.0282 12.9262 17.9808C12.9298 16.2622 13.8222 15.0256 15.4634 14.4562C15.6397 14.3948 15.6591 14.2968 15.6591 14.148C15.6555 13.1948 15.6567 12.2416 15.6579 11.2884C15.6579 11.1147 15.6579 10.9411 15.6579 10.7557H8.40609ZM20.2473 24.9107V27.527H23.0435V24.9107H20.2473ZM28.5021 9.29692V7.52046H26.743V9.29692H28.5021Z" fill="white"/>
</svg>
