<svg width="20" height="20" viewBox="0 0 20 20" fill="none" xmlns="http://www.w3.org/2000/svg">
<path fill-rule="evenodd" clip-rule="evenodd" d="M4 5.125C4 4.50368 4.50368 4 5.125 4H5.98628C6.51356 4 6.9701 4.36622 7.08449 4.88095L7.62165 7.29818C7.75078 7.87928 7.40488 8.4604 6.8325 8.62394L6.13291 8.82382C5.82482 8.91184 5.6508 9.23999 5.77297 9.53619C6.64751 11.6566 8.34344 13.3525 10.4638 14.227C10.76 14.3492 11.0882 14.1752 11.1762 13.8671L11.3761 13.1675C11.5396 12.5951 12.1207 12.2492 12.7018 12.3784L15.119 12.9155C15.6338 13.0299 16 13.4864 16 14.0137V14.875C16 15.4963 15.4963 16 14.875 16H13.75C12.8886 16 12.0524 15.8882 11.2557 15.6779C7.87498 14.7857 5.21431 12.125 4.32212 8.74432C4.11185 7.94756 4 7.11142 4 6.25V5.125Z" fill="white"/>
</svg>
