<svg width="59" height="78" viewBox="0 0 59 78" fill="none" xmlns="http://www.w3.org/2000/svg">
<path fill-rule="evenodd" clip-rule="evenodd" d="M26.9041 26.3177L22.4727 26.3548L28.165 31.8076V37.5199L16.3909 26.3177L12.4045 26.2992H5.59962L28.1094 48.5367V41.3405L12.3859 26.3177L8.12131 22.4044L4.22753 26.3363L30.4827 52.7097L56.8677 26.2621L52.9368 22.3858L48.7093 26.3548L33.0786 41.322L33.1157 48.4254L55.4956 26.3734L48.7093 26.3363H44.6301L38.604 26.225H34.1169L45.6499 14.9301L30.4271 0L15.2228 15.0784L26.9041 26.3177ZM44.6301 26.3734L50.8231 20.1602L47.8378 17.3782L38.6226 26.2621L33.0786 31.7148V37.6127L44.6301 26.3734ZM22.4727 26.3363L13.1276 17.4895L10.2907 20.457L16.3909 26.3177L22.4727 26.3363ZM6.89755 72.9441H5.82212L0 59.8316H3.2819L6.35984 67.6954L9.66028 59.8316H12.8495L6.89755 72.9441ZM13.7024 66.2302C13.7024 64.2642 14.2772 62.6692 15.4082 61.4266C16.5393 60.184 18.0412 59.5719 19.8953 59.5719C21.8608 59.5719 23.3627 60.1654 24.4566 61.3524C25.5321 62.5394 26.0698 64.1715 26.0698 66.2302C26.0698 68.2889 25.5135 69.9024 24.4195 71.1265C23.3256 72.332 21.8052 72.9441 19.8953 72.9441C17.9485 72.9441 16.428 72.332 15.3341 71.108C14.2401 69.8839 13.7024 68.2703 13.7024 66.2302ZM16.8174 66.2302C16.8174 69.0678 17.8372 70.4774 19.8768 70.4774C20.8224 70.4774 21.5641 70.1064 22.1018 69.3646C22.6395 68.6227 22.9177 67.5841 22.9177 66.2116C22.9177 63.4111 21.8979 62.0201 19.8583 62.0201C18.9312 62.0201 18.171 62.391 17.6147 63.1329C17.0955 63.8933 16.8174 64.9134 16.8174 66.2302ZM28.9808 55.028L31.9846 54.3047V68.7711C31.9846 70.3661 32.4481 71.2934 33.4123 71.6087C32.9488 72.499 32.1515 72.9255 31.039 72.9255C29.6854 72.9255 28.9994 71.9797 28.9994 70.0879V55.028H28.9808ZM34.7659 76.0043L36.6571 73.6489C37.714 74.6133 38.8821 75.0955 40.1615 75.0955C41.0145 75.0955 41.7376 74.9657 42.2938 74.706C42.8501 74.4464 43.1282 74.094 43.1282 73.6489C43.1282 72.8884 42.5163 72.499 41.274 72.499C40.9403 72.499 40.4397 72.536 39.7722 72.6102C39.1046 72.6844 38.604 72.7401 38.2703 72.7401C36.1936 72.7401 35.1738 71.9982 35.1738 70.5145C35.1738 70.0879 35.3407 69.6799 35.693 69.2718C36.0453 68.8638 36.4346 68.5671 36.8982 68.3631C35.4334 67.4172 34.6917 66.0633 34.6917 64.3199C34.6917 62.9474 35.1923 61.7975 36.2121 60.8887C37.2134 59.9985 38.4557 59.5348 39.939 59.5348C41.0886 59.5348 42.0528 59.7574 42.8316 60.184L44.0182 58.8115L46.0949 60.7033L44.6672 61.7419C45.1678 62.4838 45.4089 63.3925 45.4089 64.4126C45.4089 65.8778 44.9639 67.0462 44.0738 67.9365C43.1838 68.8082 42.0528 69.2533 40.6807 69.2533C40.4582 69.2533 40.1801 69.2347 39.8278 69.1977L39.3272 69.1235C39.2715 69.1235 39.049 69.2162 38.6782 69.3831C38.3074 69.55 38.1219 69.7355 38.1219 69.921C38.1219 70.2363 38.4001 70.4032 38.9563 70.4032C39.1974 70.4032 39.6238 70.3475 40.1986 70.2177C40.792 70.1064 41.2926 70.0322 41.7005 70.0322C44.6301 70.0322 46.0949 71.2007 46.0949 73.5561C46.0949 74.8544 45.5016 75.8745 44.3334 76.6163C43.1653 77.3582 41.7561 77.7291 40.1059 77.7291C38.1405 77.7477 36.3605 77.1727 34.7659 76.0043ZM37.7696 64.357C37.7696 65.1174 37.9736 65.7294 38.4001 66.1931C38.8265 66.6568 39.3828 66.8793 40.1059 66.8793C40.8105 66.8793 41.3667 66.6568 41.7561 66.2116C42.1455 65.7665 42.3309 65.1359 42.3309 64.357C42.3309 63.7078 42.127 63.1514 41.719 62.7063C41.3111 62.2612 40.7734 62.0386 40.1059 62.0386C39.4199 62.0386 38.8636 62.2612 38.4186 62.6878C37.9921 63.1143 37.7696 63.6707 37.7696 64.357ZM55.2546 71.4233C54.9764 71.8684 54.5129 72.2393 53.8268 72.5175C53.1408 72.7957 52.4362 72.9441 51.7131 72.9441C50.3224 72.9441 49.247 72.5917 48.4497 71.9055C47.6524 71.2192 47.263 70.2363 47.263 68.9565C47.263 67.4728 47.8193 66.3044 48.9318 65.4512C50.0443 64.6166 51.6389 64.19 53.697 64.19C54.0493 64.19 54.4573 64.2457 54.9393 64.3755C54.9393 62.8547 53.9752 62.0943 52.0654 62.0943C50.9343 62.0943 49.9887 62.2797 49.2285 62.6692L48.5795 60.3323C49.6178 59.8316 50.8416 59.5905 52.2693 59.5905C54.2348 59.5905 55.6625 60.0356 56.5896 60.9258C57.4981 61.8161 57.9617 63.5224 57.9617 66.0076V68.7525C57.9617 70.4588 58.314 71.5531 59 71.9797C58.759 72.4062 58.4808 72.6844 58.1656 72.7772C57.8504 72.8699 57.5167 72.9255 57.1273 72.9255C56.7008 72.9255 56.3114 72.7586 55.9591 72.4433C55.6068 72.1466 55.3658 71.7942 55.2546 71.4233ZM54.9579 66.6382C54.4387 66.5269 54.0679 66.4898 53.8083 66.4898C51.4349 66.4898 50.2483 67.2688 50.2483 68.8267C50.2483 69.9766 50.9158 70.5516 52.2508 70.5516C54.0493 70.5516 54.9579 69.6428 54.9579 67.8437V66.6382Z" fill="#0BB658"/>
</svg>
